<?xml version="1.0" encoding="UTF-8"?>
<svg id="Capa_2" data-name="Capa 2" xmlns="http://www.w3.org/2000/svg" xmlns:xlink="http://www.w3.org/1999/xlink" viewBox="0 0 556.11 480.34">
  <defs>
    <style>
      .cls-1, .cls-2 {
        fill: #416ec9;
      }

      .cls-3 {
        fill: #d6e7ea;
      }

      .cls-4 {
        fill: #2c4163;
        opacity: .37;
      }

      .cls-5 {
        font-family: CenturyGothic, 'Century Gothic';
        font-size: 5.71px;
      }

      .cls-6 {
        fill: #a02044;
      }

      .cls-7 {
        fill: #c4234a;
      }

      .cls-8 {
        fill: #7ce496;
      }

      .cls-9 {
        fill: #385aad;
      }

      .cls-10 {
        fill: #dc213c;
      }

      .cls-11 {
        fill: #1a1449;
      }

      .cls-12 {
        fill: #fff;
      }

      .cls-13 {
        fill: url(#Degradado_sin_nombre_4-2);
      }

      .cls-14 {
        fill: #359d9e;
      }

      .cls-15, .cls-16 {
        fill: none;
      }

      .cls-17, .cls-18, .cls-19 {
        fill: #215273;
      }

      .cls-20 {
        fill: url(#Degradado_sin_nombre_4);
      }

      .cls-18 {
        opacity: .62;
      }

      .cls-21 {
        opacity: .36;
      }

      .cls-21, .cls-22 {
        fill: #293f6b;
      }

      .cls-23 {
        fill: #3f2a8c;
      }

      .cls-24 {
        clip-path: url(#clippath-1);
      }

      .cls-25 {
        fill: #f2f2f2;
      }

      .cls-26 {
        fill: #ff3e3e;
      }

      .cls-27 {
        fill: #2f226d;
      }

      .cls-28 {
        fill: #151426;
      }

      .cls-29 {
        fill: #ff6131;
      }

      .cls-30 {
        fill: #ed2e53;
      }

      .cls-31 {
        fill: #677bc1;
      }

      .cls-32 {
        fill: #b5d800;
        fill-rule: evenodd;
      }

      .cls-16 {
        clip-rule: evenodd;
      }

      .cls-33 {
        fill: #252f5a;
      }

      .cls-19 {
        opacity: .22;
      }

      .cls-34 {
        fill: #9df763;
      }

      .cls-35 {
        opacity: .72;
      }

      .cls-35, .cls-36 {
        fill: #ed8772;
      }

      .cls-37 {
        fill: #dd8b66;
      }

      .cls-38 {
        fill: #b4cfd3;
      }

      .cls-39 {
        fill: #eff7f9;
      }

      .cls-40 {
        fill: #f2902f;
        opacity: .6;
      }

      .cls-41 {
        fill: #242754;
      }

      .cls-2 {
        opacity: .47;
      }

      .cls-42 {
        fill: #ffbf9f;
      }

      .cls-43 {
        fill: #133344;
      }

      .cls-44 {
        fill: #a7c5d8;
      }

      .cls-45 {
        fill: #f4c42c;
      }

      .cls-46 {
        clip-path: url(#clippath);
      }
    </style>
    <clipPath id="clippath">
      <polygon class="cls-16" points="242.73 125.15 260.41 154.79 314.45 64.19 279.09 64.19 242.73 125.15"/>
    </clipPath>
    <linearGradient id="Degradado_sin_nombre_4" data-name="Degradado sin nombre 4" x1="241.58" y1="154.79" x2="241.58" y2="64.19" gradientTransform="translate(37.01)" gradientUnits="userSpaceOnUse">
      <stop offset="0" stop-color="#0d617b"/>
      <stop offset="1" stop-color="#12a8bd"/>
    </linearGradient>
    <clipPath id="clippath-1">
      <path class="cls-15" d="M232.23,201.76l7.5-.46c.18,1.21.5,2.14,1,2.79.82,1,1.97,1.54,3.5,1.54,1.11,0,1.97-.25,2.57-.79.64-.54.93-1.14.93-1.86,0-.64-.29-1.25-.86-1.79-.57-.5-1.93-1-4.04-1.47-3.47-.79-5.93-1.82-7.4-3.11-1.5-1.29-2.25-2.93-2.25-4.93,0-1.32.39-2.54,1.14-3.72.75-1.18,1.89-2.07,3.43-2.75,1.54-.68,3.64-1,6.29-1,3.29,0,5.75.61,7.47,1.82,1.72,1.21,2.75,3.14,3.07,5.82l-7.43.43c-.18-1.18-.61-2-1.25-2.54-.64-.54-1.5-.79-2.61-.79-.93,0-1.61.18-2.07.57-.46.39-.71.86-.71,1.43,0,.39.18.79.57,1.11.36.32,1.25.64,2.64.93,3.43.75,5.93,1.5,7.4,2.25,1.5.79,2.61,1.72,3.29,2.86.68,1.11,1,2.39,1,3.79,0,1.64-.46,3.14-1.36,4.54-.89,1.36-2.18,2.43-3.79,3.14-1.64.71-3.68,1.07-6.18,1.07-4.32,0-7.36-.86-9-2.5-1.68-1.68-2.64-3.82-2.86-6.4ZM275.15,206.01h-8.97l-1.29,4.22h-8.08l9.65-25.59h8.65l9.58,25.59h-8.29l-1.25-4.22ZM273.47,200.48l-2.79-9.18-2.82,9.18h5.61ZM281.58,184.65h8.79l5.18,8.61,5.15-8.61h8.72l-9.93,14.87v10.72h-7.93v-10.72l-9.97-14.87ZM324.34,206.01h-8.97l-1.29,4.22h-8.08l9.65-25.59h8.65l9.58,25.59h-8.29l-1.25-4.22ZM322.66,200.48l-2.79-9.18-2.82,9.18h5.61ZM336.46,184.65h7.4l9.58,14.11v-14.11h7.47v25.59h-7.47l-9.54-14.04v14.04h-7.43v-25.59Z"/>
    </clipPath>
    <linearGradient id="Degradado_sin_nombre_4-2" data-name="Degradado sin nombre 4" x1="29.21" y1="210.66" x2="29.21" y2="184.21" xlink:href="#Degradado_sin_nombre_4"/>
  </defs>
  <g id="Capa_3" data-name="Capa 3">
    <g>
      <g>
        <ellipse class="cls-3" cx="268.33" cy="472.11" rx="261.32" ry="8.23"/>
        <ellipse class="cls-44" cx="323.13" cy="469.04" rx="206.52" ry="5.16"/>
        <g>
          <g>
            <path class="cls-17" d="M86.13,195.88s-23.73-1.9-50.52-27.91c-26.79-26-44.01-75.32-8.7-79.39,35.31-4.07,24.42,40.17,35.69,65.59,11.27,25.41,29.05,32.67,29.05,32.67l-5.51,9.05Z"/>
            <path class="cls-43" d="M87.33,193.67l.94-1.04c-.37-.15-37.14-15.66-52.22-50.39-14.83-34.15-13.61-39.47-13.55-39.68l-1.55-.13c-.07.2-1.67,5.22,13.57,40.3,15.24,35.1,52.44,50.77,52.81,50.93Z"/>
          </g>
          <path class="cls-14" d="M94.35,243.76s-27.25-12.67-19.96-32.24c7.29-19.58-3.63-19.63-1.24-33.42,2.39-13.79-7.2-15.33-6.05-27.61,1.15-12.28,4.61-10.89,1.15-16.96-3.45-6.07,4.99-7.52,1.92-14.86-3.07-7.34-6.14-18.85-1.15-18.47,4.99.38,11.18,4.61,11.35,13.44.17,8.83,10.53,8.83,10.92,23.8s3.07,106.33,3.07,106.33Z"/>
          <path class="cls-17" d="M90.9,209.28l.75-.18c-.08-.31-7.66-31.74-10.91-57.52l-3.29-26.1-.76.1,3.29,26.1c3.25,25.83,10.85,57.29,10.92,57.61Z"/>
          <g>
            <path class="cls-8" d="M102.18,256.41s-23.5,3.87-56.87-16.07c-33.37-19.94-64.18-65.98-31.19-78.77,32.99-12.79,35.14,34.96,53.33,58.1,18.19,23.14,37.47,26.18,37.47,26.18l-2.74,10.57Z"/>
            <path class="cls-14" d="M102.7,253.86l.62-1.29c-.4-.06-40.42-6.86-64.96-38.57-24.14-31.17-24.49-36.89-24.49-37.12l-1.54.25c-.02.22-.11,5.73,24.68,37.75,24.81,32.04,65.29,38.91,65.7,38.97Z"/>
          </g>
          <g>
            <rect class="cls-27" x="86.67" y="0" width="425.32" height="274.85" rx="13.82" ry="13.82"/>
            <rect class="cls-25" x="94.35" y="7.68" width="409.97" height="259.49" rx="6.14" ry="6.14"/>
            <path class="cls-31" d="M100.49,7.68h397.69c3.39,0,6.14,2.75,6.14,6.14v10.75H94.35v-10.75c0-3.39,2.75-6.14,6.14-6.14Z"/>
            <circle class="cls-34" cx="129.66" cy="15.35" r="3.07"/>
            <circle class="cls-45" cx="117.63" cy="15.35" r="3.07"/>
            <circle class="cls-30" cx="105.61" cy="15.35" r="3.07"/>
            <g>
              <g class="cls-46">
                <rect class="cls-20" x="242.73" y="64.19" width="71.72" height="90.6"/>
              </g>
              <polygon class="cls-32" points="303.05 104.36 320.73 74.72 350.39 124.45 333.13 154.79 303.05 104.36"/>
              <polygon class="cls-32" points="272.98 154.79 296.77 114.9 320.57 154.79 272.98 154.79"/>
              <g class="cls-24">
                <rect class="cls-13" x="-280.55" y="-130.78" width="693.55" height="980.88"/>
              </g>
              <text class="cls-5" transform="translate(249.66 176.38)"><tspan x="0" y="0">C</tspan></text>
              <text class="cls-5" transform="translate(259.28 176.38)"><tspan x="0" y="0">O</tspan></text>
              <text class="cls-5" transform="translate(269.22 176.38)"><tspan x="0" y="0">R</tspan></text>
              <text class="cls-5" transform="translate(277.66 176.38)"><tspan x="0" y="0">P</tspan></text>
              <text class="cls-5" transform="translate(286.02 176.38)"><tspan x="0" y="0">O</tspan></text>
              <text class="cls-5" transform="translate(295.96 176.38)"><tspan x="0" y="0">R</tspan></text>
              <text class="cls-5" transform="translate(304.4 176.38)"><tspan x="0" y="0">A</tspan></text>
              <text class="cls-5" transform="translate(313.6 176.38)"><tspan x="0" y="0">C</tspan></text>
              <text class="cls-5" transform="translate(323.22 176.38)"><tspan x="0" y="0">I</tspan></text>
              <text class="cls-5" transform="translate(329.49 176.38)"><tspan x="0" y="0">Ó</tspan></text>
              <text class="cls-5" transform="translate(339.43 176.38)"><tspan x="0" y="0">N</tspan></text>
            </g>
          </g>
        </g>
        <g>
          <g>
            <path class="cls-8" d="M468.16,430.09c.11-.18.25-.34.41-.47.64-.54,1.49-.77,2.21-1.19,1.77-1.03,2.66-3.11,2.76-5.04.1-1.93-.44-3.78-.85-5.63-1.58-7.14-1.21-14.83,1.09-22.09,7.17,5.7,9.56,16.34,5.63,25.16,3.89-3.59,7.39-7.56,10.42-11.84-7.1-8.07-7.9-20.96-1.92-30.78,6.57,6.87,8.98,17.31,6.2,26.87,3.94-4.09,7.4-8.61,10.27-13.43-3.37-.92-4.72-4.68-5.22-8.06-1.01-6.83-.32-14.01,2-20.79,3.88,2.09,6.29,6.1,7.29,10.35,1,4.26.73,8.79.24,13.24,3.27-4.07,6.18-8.41,8.67-12.94-7.08-6.82-11.18-16.47-11.26-26.5,8.65,4.51,14.13,13.86,13.89,23.69,2.19-4.34,4.38-8.69,6.56-13.03.35-.69.7-1.41.71-2.15,0-.83-.43-1.57-.84-2.27-3.13-5.4-5.27-11.39-6.3-17.64-.52-3.18-.68-6.72,1.21-9.56,7.55,5.36,11.67,14.8,10.57,24.22,2.59-5.92,1.39-12.44,2.61-18.66,1.07-5.46,3.96-10.53,6.81-15.48,2.21-3.85,4.58-7.87,8.39-10.3.1,9.98-.22,20.89-6.82,29.09-3.52,4.38-8.96,8.46-8.66,13.76,6.06-5.22,14.11-8.16,21.89-8-6.14,7.1-14.44,12.47-23.42,15.15-.98.29-2.02.58-2.8,1.25-.6.52-1,1.21-1.38,1.89-2.35,4.19-4.71,8.38-7.06,12.58,7-6.29,16.83-9.44,25.82-8.28-7.28,6.96-16.86,11.63-26.69,13.01-1.02.14-2.1.27-2.96.87-.76.53-1.24,1.34-1.69,2.13-1.59,2.77-3.17,5.53-4.76,8.3,4.99-2.32,10.23-3.24,15.57-3.43.54-.02,9.46.09,8.5,1.46-.79,1.12-10.32,7.03-16.96,8.73-6.64,1.69-10.88.08-12.41.9-1.54.82-6.66,8.43-6.66,8.43,0,0,10.46-4.02,16.1-2.44,5.64,1.58,6.54,1.79,5.48,2.49-1.06.7-9.98,6.71-17.36,7.29-7.38.57-9.27-1.29-11.33.38s-7.67,8.89-7.67,8.89c0,0,7.32-3.14,13.79-2.61,3.4.28,6.74.73,10.11,1.19-7.96,6.61-18.87,9.62-28.64,7.91-.76-.13-1.54-.29-2.31-.1-.7.17-1.32.61-1.91,1.04-1.62,1.17-3.24,2.35-4.85,3.52-.73.53-1.77,1.07-2.41.54-.45-.37-.37-1.06-.03-1.61Z"/>
            <path class="cls-14" d="M478.04,425.71c.17-.18,17.08-18.07,34.57-41.64,17.53-23.63,23.35-41.99,23.4-42.17l-1.47-.46c-.06.18-5.81,18.31-23.17,41.71-17.43,23.49-34.28,41.32-34.45,41.5l1.11,1.06Z"/>
          </g>
          <path class="cls-14" d="M142.71,352.39c8.45,8.26,13.63,7.29,16.51,19.19.61,2.59,1.01,5.13,1.35,7.52v.05c.21,1.43.4,2.81.6,4.12.75,4.62,1.77,8.4,4.82,10.49,1.31.89,2.96,1.47,5.13,1.69,11.13,1.09,18.61,4.73,25.72,19.52,7.11,14.79,21.27,35.96,43.55,41.69,22.28,5.71-32.41-68.17-32.41-68.17,0-.72-1.49-11.41-9.14-14.74-.57-.25-1.17-.46-1.8-.61-9.21-2.3-7.68-7.09-8.08-12.1-.37-4.97-5.17-15.92-16.49-20.33-11.33-4.42-15.55-13.63-18.24-22.46-2.69-8.83-2.69-24.37-10.16-16.51-7.49,7.86-9.8,42.41-1.35,50.67Z"/>
          <path class="cls-19" d="M177.26,392.22c-7.28-.17-11.39-2.36-13.73-4.91.72,1.89,1.54,4.07,2.46,6.45,1.31.89,2.96,1.47,5.13,1.69,11.13,1.09,18.61,4.73,25.72,19.52,7.11,14.79,21.27,35.96,43.55,41.69,22.28,5.71-32.41-68.17-32.41-68.17,0-.72-1.49-11.41-9.14-14.74-.08,2.18-.92,4.56-3.16,6.88-7.16,7.35,18.95,42.7,10,36.81-8.95-5.91-10.49-24.78-28.41-25.2Z"/>
          <path class="cls-18" d="M233.57,437.04l1-1.17s-2.88-2.49-18.35-16.76c-6.43-5.94-11.11-13.75-16.06-22.02-6.84-11.43-13.91-23.24-26-29.61-19.79-10.43-26.79-43.91-26.86-44.25l-1.51.31c.28,1.41,7.22,34.53,27.65,45.3,11.71,6.17,18.67,17.8,25.4,29.04,4.79,8,9.74,16.28,16.34,22.36,15.52,14.32,18.28,16.71,18.39,16.8Z"/>
          <path class="cls-17" d="M464.97,356.43s18.97-8.38,24.45-17.92c5.49-9.54,4.14-15.68,8.17-20.67s15.55-4.8,17.66,7.87c2.11,12.67-3.26,23.61-27.45,34.74-24.18,11.13-37.43,6.35-22.84-4.02Z"/>
          <path class="cls-43" d="M464.03,364.61c1.05,0,10.19-.34,26.49-11.4,17.08-11.59,15.96-22.11,15.9-22.56l-.76.1c.01.1,1.08,10.52-15.57,21.82-16.74,11.36-26.06,11.28-26.13,11.27l-.02.77s.05,0,.09,0Z"/>
          <path class="cls-14" d="M468.02,343.94s6.3-8.38,2.39-19.07c-3.9-10.68-4.12-24.06-.56-31.86,3.56-7.81,15.59-6.46,18.98,4.48,3.39,10.94-9.09,17.27-6.02,34.36,3.07,17.08-3.55,25.91-15.5,27.06s.7-14.97.7-14.97Z"/>
          <path class="cls-17" d="M283.99,408.43s-10.76-4.61-20.55-25.53c-9.79-20.92-12.86-55.85,3.84-53.55s7.29,29.92,9.98,48.26c2.69,18.34,10.17,25.63,10.17,25.63l-3.44,5.18Z"/>
          <path class="cls-43" d="M284.76,407.14l.54-.55c-.16-.15-15.59-15.56-19.11-40.58-3.47-24.6-2.38-27.94-2.33-28.06l-.7-.3c-.05.12-1.29,3.21,2.27,28.48,3.56,25.29,19.18,40.87,19.33,41.02Z"/>
          <path class="cls-8" d="M291.4,402.8s-14.14,2.18-18.17-3.97-3.26-22.07-13.24-24.38c-9.98-2.3-12.09-.38-13.63-9.21-1.54-8.83.77-20.15-12.86-18.9-13.63,1.25-17.27-9.89-20.15-12.96-2.88-3.07-10.36-18.43-15.16-7.1-4.8,11.32-2.3,23.22,3.84,35.51,6.14,12.28,4.99,15.55.96,21.3-4.03,5.76-1.73,14.33,5.18,20.98,6.91,6.65,7.29,11.94,8.45,23.98,1.15,12.04,16.89,27.59,30.13,31.04,13.24,3.45,38.96-.91,38.96-.91,0,0,49.58-49.89,5.69-55.39Z"/>
          <path class="cls-14" d="M287.79,458.82l.89-1.25c-.29-.2-28.94-20.82-49.34-56.38-20.43-35.61-25.23-49.84-25.27-49.98l-1.46.48c.05.14,4.87,14.48,25.4,50.27,20.57,35.86,49.49,56.66,49.78,56.87Z"/>
          <g>
            <path class="cls-30" d="M471.71,335.91v19.12c0,.47-.04.94-.12,1.39-.91,5.44-7.02,9.64-14.45,9.64h-174.41v-3.31s2.08,0,4.96-1.61c2.87-1.63,1.76-14.71,1.76-25.74,0-6.35-6.72-7.51-6.72-7.51v-3.01h174.41c8.05,0,14.57,4.93,14.57,11.03Z"/>
            <path class="cls-6" d="M387.14,335.91v19.12c0,.47-.04.94-.12,1.39-.91,5.44-7.02,9.64-14.44,9.64h-89.85v-3.31s2.08,0,4.96-1.61c2.87-1.63,1.76-14.71,1.76-25.74,0-6.35-6.72-7.51-6.72-7.51v-3.01h89.85c8.04,0,14.55,4.93,14.55,11.03Z"/>
            <path class="cls-39" d="M382.97,337.22v16.21c0,.3-.03.61-.06.91-.69,4.73-6.64,8.41-13.91,8.41h-86.27s2.08,0,4.96-1.61c.71-.41,1.18-1.53,1.48-3.16.21-1.03.32-2.27.39-3.65.05-.9.09-1.88.1-2.89.04-2.96-.05-6.35-.13-9.78,0-.42-.01-.84-.03-1.25-.03-1.7-.05-3.38-.05-5.02,0-1.19-.23-2.19-.61-3.03-1.66-3.72-6.11-4.48-6.11-4.48h86.27c7.73,0,13.97,4.18,13.97,9.33Z"/>
            <path class="cls-38" d="M289.5,340.42c.01.41.03.83.03,1.25h93.44s0-1.25,0-1.25h-93.47Z"/>
            <path class="cls-38" d="M289.56,354.33h93.35c.04-.3.07-.6.07-.91v-1.98s-93.32,0-93.32,0c-.01,1.01-.04,1.99-.09,2.89Z"/>
            <path class="cls-4" d="M382.97,337.22v16.21c0,.3-.03.61-.06.91-.69,4.73-6.64,8.41-13.91,8.41h-86.27s2.08,0,4.96-1.61c.71-.41,1.18-1.53,1.48-3.16,19.04,0,46.6-.02,59.28,0,20.39.06,31.4-9.12,23.96-19.83-5.4-7.77-56.08-6.87-83.56-5.8-1.66-3.72-6.11-4.48-6.11-4.48h86.27c7.73,0,13.97,4.18,13.97,9.33Z"/>
            <path class="cls-7" d="M471.59,356.43c-.38,2.27-1.66,4.32-3.57,5.95-2.67,2.27-6.55,3.69-10.88,3.69h-84.56c4.32,0,8.2-1.42,10.85-3.69,1.92-1.63,3.21-3.69,3.59-5.95h84.57Z"/>
            <path class="cls-6" d="M468.02,362.38c-2.67,2.27-6.55,3.69-10.88,3.69h-84.56c4.32,0,8.2-1.42,10.85-3.69h84.58Z"/>
            <path class="cls-26" d="M397.37,330.49c8.71-2.6,60.88-2.56,64.68,2.73,3.8,5.28,2.29,13.28-8.07,14.35-10.36,1.07-55.25,1.15-57.62-2.24-2.37-3.39-3.55-13.47,1.01-14.83Z"/>
            <path class="cls-9" d="M318.14,341.04s-1.89.36-1.6,5.91c.28,5.55,0,23.53,0,23.53l-4.06-4.46-4.57,4.46s-.42-24.37,0-26.55c.42-2.17,1.55-2.9,1.55-2.9h8.68Z"/>
          </g>
          <g>
            <path class="cls-45" d="M303.61,368.15v20.12h-4.28s0,3.95,0,3.95h180.31c6.57,0,12.01-5.05,13.03-11.7.13-.75.19-1.51.19-2.29,0-7.75-5.91-14.01-13.21-14.01h-180.31s0,3.93,0,3.93h4.28Z"/>
            <path class="cls-29" d="M303.61,368.15v20.12h-4.28s0,3.95,0,3.95h89.01c.22,0,.43,0,.66-.02,6.27-.32,11.38-5.26,12.37-11.68.13-.75.19-1.51.19-2.29,0-7.75-5.91-14.01-13.21-14.01h-89.01s0,3.93,0,3.93h4.28Z"/>
            <path class="cls-39" d="M303.61,368.15v20.12s79.17,0,79.17,0c5.84,0,10.72-3.27,12.04-7.67.23-.77.34-1.56.34-2.37,0-.21-.01-.42-.03-.61-.1-1.54-.63-2.97-1.49-4.24-.29-.43-.62-.83-.96-1.22-2.27-2.44-5.85-4.01-9.9-4.01h-79.17Z"/>
            <path class="cls-38" d="M303.61,372.16v1.22s90.03,0,90.03,0c-.29-.43-.62-.83-.96-1.22h-89.07Z"/>
            <path class="cls-38" d="M303.61,377.62v2.98s91.21,0,91.21,0c.23-.77.34-1.56.34-2.37,0-.21-.01-.42-.03-.61h-91.52Z"/>
            <path class="cls-4" d="M388.06,378.21c-1.1,9.24-50.75,8.71-84.45,7.28v2.78s79.17,0,79.17,0c5.84,0,10.72-3.27,12.04-7.67.23-.77.34-1.56.34-2.37,0-.21-.01-.42-.03-.61-.1-1.54-.63-2.97-1.49-4.24-.29-.43-.62-.83-.96-1.22-2.27-2.44-5.85-4.01-9.9-4.01h-79.17s0,1.78,0,1.78c22.55-1.12,85.81-3.24,84.45,8.28Z"/>
            <path class="cls-40" d="M389,392.2v.02h90.63c3.59,0,6.83-1.51,9.2-3.95,1.99-2.04,3.36-4.73,3.83-7.75h-91.29c-.47,3.02-1.85,5.71-3.83,7.75-2.22,2.29-5.22,3.75-8.54,3.93Z"/>
            <path class="cls-29" d="M389,392.2v.02h90.63c3.59,0,6.83-1.51,9.2-3.95h-91.29c-2.22,2.29-5.22,3.75-8.54,3.93Z"/>
          </g>
          <g>
            <path class="cls-9" d="M273.23,438.6v18.26c0,.45.05.9.14,1.33,1.11,5.2,8.6,9.21,17.7,9.21h213.63s0-3.17,0-3.17c0,0-2.55,0-6.07-1.54-3.52-1.55-2.16-14.05-2.16-24.59,0-6.07,8.23-7.17,8.23-7.17v-2.88s-213.63,0-213.63,0c-9.87,0-17.84,4.71-17.84,10.54Z"/>
            <path class="cls-1" d="M376.81,438.6v18.26c0,.45.05.9.14,1.33,1.11,5.2,8.6,9.21,17.68,9.21h110.06s0-3.17,0-3.17c0,0-2.55,0-6.07-1.54-3.52-1.55-2.16-14.05-2.16-24.59,0-6.07,8.23-7.17,8.23-7.17v-2.88s-110.06,0-110.06,0c-9.85,0-17.83,4.71-17.83,10.54Z"/>
            <path class="cls-39" d="M381.92,439.85v15.48c0,.29.03.58.08.87.84,4.51,8.14,8.04,17.03,8.04h105.66s-2.55,0-6.07-1.54c-.87-.39-1.44-1.46-1.81-3.02-.25-.98-.4-2.16-.48-3.48-.06-.86-.11-1.8-.13-2.76-.05-2.83.06-6.06.16-9.34,0-.4.02-.81.03-1.19.03-1.62.06-3.23.06-4.8,0-1.13.29-2.09.75-2.89,2.03-3.55,7.49-4.28,7.49-4.28h-105.66c-9.47,0-17.11,3.99-17.11,8.91Z"/>
            <path class="cls-38" d="M496.4,442.9c-.02.39-.03.79-.03,1.2h-114.45v-1.2h114.48Z"/>
            <path class="cls-38" d="M496.33,456.19h-114.33c-.05-.29-.08-.57-.08-.87v-1.89h114.3c.02.97.05,1.9.11,2.76Z"/>
            <path class="cls-4" d="M381.92,439.85v15.48c0,.29.03.58.08.87.84,4.51,8.14,8.04,17.03,8.04h105.66s-2.55,0-6.07-1.54c-.87-.39-1.44-1.46-1.81-3.02-23.32,0-57.08-.02-72.61,0-24.98.06-38.46-8.71-29.34-18.94,6.61-7.42,68.69-6.57,102.35-5.54,2.03-3.55,7.49-4.28,7.49-4.28h-105.66c-9.47,0-17.11,3.99-17.11,8.91Z"/>
            <path class="cls-21" d="M273.37,458.19c.46,2.16,2.03,4.13,4.38,5.69,3.27,2.16,8.03,3.52,13.32,3.52h103.57c-5.3,0-10.04-1.36-13.29-3.52-2.35-1.55-3.93-3.52-4.39-5.69h-103.59Z"/>
            <path class="cls-22" d="M277.75,463.88c3.27,2.16,8.03,3.52,13.32,3.52h103.57c-5.3,0-10.04-1.36-13.29-3.52h-103.6Z"/>
            <path class="cls-2" d="M364.28,433.42c-10.67-2.48-74.57-2.44-79.23,2.6-4.66,5.05-2.81,12.68,9.88,13.7s67.67,1.1,70.58-2.14c2.91-3.24,4.35-12.87-1.24-14.17Z"/>
            <path class="cls-10" d="M461.32,443.5s2.31.35,1.96,5.65c-.35,5.3,0,22.47,0,22.47l4.97-4.26,5.6,4.26s.51-23.28,0-25.35c-.51-2.07-1.9-2.77-1.9-2.77h-10.63Z"/>
          </g>
          <g>
            <path class="cls-30" d="M280.14,401.82v16.64c0,.41.04.82.12,1.21.95,4.74,7.33,8.39,15.09,8.39h182.13s0-2.88,0-2.88c0,0-2.18,0-5.18-1.4-3-1.42-1.84-12.8-1.84-22.4,0-5.53,7.02-6.54,7.02-6.54v-2.62s-182.13,0-182.13,0c-8.41,0-15.21,4.29-15.21,9.6Z"/>
            <path class="cls-6" d="M368.45,401.82v16.64c0,.41.04.82.12,1.21.95,4.74,7.33,8.39,15.08,8.39h93.83s0-2.88,0-2.88c0,0-2.18,0-5.18-1.4-3-1.42-1.84-12.8-1.84-22.4,0-5.53,7.02-6.54,7.02-6.54v-2.62s-93.83,0-93.83,0c-8.4,0-15.2,4.29-15.2,9.6Z"/>
            <path class="cls-39" d="M372.81,402.96v14.11c0,.26.03.53.07.79.72,4.11,6.94,7.32,14.52,7.32h90.09s-2.18,0-5.18-1.4c-.74-.36-1.23-1.33-1.54-2.75-.22-.9-.34-1.97-.41-3.17-.05-.79-.09-1.64-.11-2.52-.04-2.58.05-5.52.14-8.51,0-.37.01-.73.03-1.08.03-1.48.05-2.94.05-4.37,0-1.03.24-1.9.64-2.64,1.73-3.23,6.38-3.9,6.38-3.9h-90.09c-8.07,0-14.59,3.64-14.59,8.12Z"/>
            <path class="cls-38" d="M470.41,405.74c-.01.36-.03.72-.03,1.09h-97.58v-1.09h97.6Z"/>
            <path class="cls-38" d="M470.35,417.85h-97.48c-.04-.26-.07-.52-.07-.79v-1.72h97.45c.01.88.04,1.73.1,2.51Z"/>
            <path class="cls-4" d="M372.81,402.96v14.11c0,.26.03.53.07.79.72,4.11,6.94,7.32,14.52,7.32h90.09s-2.18,0-5.18-1.4c-.74-.36-1.23-1.33-1.54-2.75-19.88,0-48.67-.02-61.91,0-21.3.05-32.79-7.94-25.02-17.26,5.64-6.76,58.57-5.98,87.26-5.04,1.73-3.23,6.38-3.9,6.38-3.9h-90.09c-8.07,0-14.59,3.64-14.59,8.12Z"/>
            <path class="cls-7" d="M280.26,419.67c.39,1.97,1.73,3.76,3.73,5.18,2.79,1.97,6.84,3.21,11.36,3.21h88.3c-4.52,0-8.56-1.24-11.33-3.21-2-1.42-3.35-3.21-3.75-5.18h-88.32Z"/>
            <path class="cls-4" d="M283.99,424.85c2.79,1.97,6.84,3.21,11.36,3.21h88.3c-4.52,0-8.56-1.24-11.33-3.21h-88.33Z"/>
            <path class="cls-26" d="M357.77,397.1c-9.1-2.26-63.58-2.22-67.55,2.37-3.97,4.6-2.39,11.56,8.43,12.49,10.82.93,57.7,1,60.18-1.95,2.48-2.95,3.71-11.72-1.05-12.91Z"/>
          </g>
          <g>
            <path class="cls-28" d="M323.7,426.43c1.04,2.15,3.79,1.7,7.75,1.29,3.96-.43,13.88-4.3,15.45-6.79,1.58-2.49,2.07-1.4,3.95-1.12,1.89.26,8-1.14,9.38-4.68s-3.36-11.19-5.13-12.79c-.2-.18-.38-.45-.54-.77-1.44,1.83-1.97,3.88-4.74,3.85-2.73-.05-6.25,1.35-9.17,1.44-2.56,5.28-15.23,12.21-16.8,13.79-1.61,1.64-1.21,3.64-.15,5.77Z"/>
            <path class="cls-11" d="M355.97,425.2c.6,2.3,3.36,2.43,7.34,2.81,3.96.38,14.45-1.41,16.51-3.53,2.04-2.12,2.3-.95,4.08-.31,1.8.64,8.06.51,10.13-2.69,1.92-2.99-.66-10.58-2.17-13.11-1.74.38-3.29.95-4.25,1.77-3.45,2.9-10.18,2.1-11.72,0-4.31,4.39-16.84,8.26-18.61,9.43-1.92,1.27-1.92,3.33-1.32,5.64Z"/>
            <path class="cls-42" d="M375.9,410.14c1.54,2.1,8.26,2.9,11.72,0,.97-.81,2.52-1.38,4.25-1.77-.11-.17-.2-.32-.29-.45-1.4-1.92,0-10.33,0-10.33l-13.68,1.63s1.92,4.87-1.03,9.72c-.25.4-.57.8-.97,1.2Z"/>
            <path class="cls-42" d="M340.9,406.31c-.06.18-.14.37-.25.55,2.92-.09,6.43-1.49,9.17-1.44,2.78.03,3.3-2.03,4.74-3.85-1.29-2.61-1.55-9.35-1.55-9.35l-13.08,4.36s2.87,4.38.97,9.73Z"/>
            <path class="cls-35" d="M340.9,406.31c-.06.18-.14.37-.25.55,2.92-.09,6.43-1.49,9.17-1.44,2.78.03,3.3-2.03,4.74-3.85-1.29-2.61-1.55-9.35-1.55-9.35l-13.08,4.36s2.87,4.38.97,9.73Z"/>
            <path class="cls-27" d="M313.66,326.16c.91,7.54,20.1,71.14,20.87,71.4.77.25,21.62-1.15,21.11-3.33-.52-2.18-16.26-68.33-14.85-70.25s6.4-.77,9.6-.77c3.19,0,28.28,9.86,33.4,6.53,5.11-3.33,27.64-32.32,6.91-34.46h-58.93s-13.88.52-17.07,8.78c-3.19,8.28-1.92,14.54-1.03,22.1Z"/>
            <path class="cls-11" d="M334.52,397.56c.77.25,21.62-1.15,21.11-3.33-.52-2.18-16.26-68.33-14.85-70.25s6.4-.77,9.6-.77c3.19,0,28.28,9.86,33.4,6.53,5.11-3.33,27.64-32.32,6.91-34.46h-18.04s-1.24-.18-1.24-.18c0,0-.17.06-.48.18-1.72.71-7.66,3.45-10.95,8.78-4.87,7.89,1.54,14.03-12.54,14.8-14.06.77-9.46,2.55-7.68,16.63,1.8,14.08,13.57,59.62-5.24,62.06Z"/>
            <path class="cls-23" d="M425.14,304.02s1.34,8.35-2.69,15.35c-4.03,7.01-11.23,8.64-15.83,8.73-4.61.1-13.92-1.54-14.2-.77s1.25,37.91,1.44,42.32-.36,29.65-1.48,30.13c-1.12.48-18.87.38-19.16-.48s-6.72-53.74-6.72-53.74c0,0-4.32-33.49-3.74-38.77.58-5.28,4.13-10.48,9.88-11.52h38.07s14.43,8.74,14.43,8.74Z"/>
            <path class="cls-30" d="M406.49,220.15s20.38,3.07,22.68,7.1c2.3,4.03,10.94,28.98,9.12,30.61-1.82,1.63-15.35,1.73-15.35,1.73,0,0,1.44,23.51,2.3,33.3.86,9.79,1.06,11.52-.1,11.13-1.15-.38-10.94-6.05-13.92-7.39-2.97-1.34-39.83-1.54-39.83-1.54h-23.96s16.51-64.01,22.26-67.21c5.76-3.2,16.63-6.53,16.63-6.53l20.15-1.22Z"/>
            <path class="cls-41" d="M371.75,185.15s.77-3.52,7.81-4.41c7.04-.9,18.49-3.33,23.1,2.21,4.61,5.53,4.41,10.2,2.88,16.67-1.54,6.46-1.22,8.32-3.07,8.77-1.86.45-17.59-5.18-19.51-9.02-1.92-3.84-5.95-4.99-5.95-4.99,0,0-2.88-.57-4.67-3.1-1.79-2.53-.58-6.11-.58-6.11Z"/>
            <path class="cls-42" d="M397.47,198.01s-.19,2.05.58,1.28,1.22-2.81,2.69-1.86c1.47.96,1.92,2.18.32,4.35-1.6,2.18-1.54,4.16-.38,5.37s1.79,1.22,1.79,1.22c0,0,0,6.27,0,8.76s4.03,3.01,4.03,3.01c0,0-1.73,5.89-9.85,5.82-8.13-.06-10.3-4.61-10.3-4.61,0,0,3.77-.13,4.35-1.98.58-1.86.19-3.65.19-3.65,0,0-3.01,1.54-6.4.19-3.39-1.34-4.67-5.44-5.57-9.85-.9-4.41-1.92-11.71-1.92-11.71,0,0,6.08-1.98,8.57-2.18s7.29-1.98,9.6,0c2.3,1.98,2.3,5.82,2.3,5.82Z"/>
            <path class="cls-36" d="M390.88,215.73s2.97-1.44,5.09-3.07l2.11-1.63s-3.45,9.79-4.7,8.73c-1.25-1.06-2.5-4.03-2.5-4.03Z"/>
            <path class="cls-42" d="M437.33,258.33s4.15,14.79,1.21,21.41c-2.94,6.62-15.51,6.62-23.38,7.58s-25.62,2.59-27.06,3.17c-1.44.58-2.5,1.06-2.5,1.06l-1.25-7.87s9.21-2.97,11.9-3.45,19.39-5.95,23.99-6.91l4.61-.96-1.92-12.76s11.89-.69,14.39-1.26Z"/>
            <path class="cls-7" d="M418.33,247.11s2.02,10.94,2.59,12.09,2.02.38,2.02.38l1.92,12.76-11.84,2.94s5.7-1.31,7.14-6.59c1.44-5.28,2.21-7.97.86-8.25-1.34-.29-2.69-13.34-2.69-13.34Z"/>
            <path class="cls-41" d="M382.48,295.28h30.49c.63,0,1.13-.51,1.13-1.13h0c0-.62-.51-1.13-1.13-1.13h-30.49c-.63,0-1.13.51-1.13,1.13h0c0,.63.51,1.13,1.13,1.13Z"/>
            <path class="cls-7" d="M379.17,246.57l-2.18,7.74s3.14-.66,3.59,2.14c.45,2.81,3.76,28.37,3.76,28.37l10.12-4.19s-5.76.22-8.74-5.34c-2.98-5.56-3.11-19.74-5.32-20.98s-1.25-7.74-1.25-7.74Z"/>
            <path class="cls-41" d="M385.77,291.77l-5.06-34.83c-.22-1.51-1.51-2.63-3.04-2.63h-50.64c-1.86,0-3.29,1.64-3.04,3.48l4.73,34.83c.21,1.52,1.51,2.66,3.04,2.66h50.97c1.87,0,3.31-1.66,3.04-3.51Z"/>
            <path class="cls-12" d="M348.22,274.21c0,1.84,1.49,3.33,3.33,3.33,1.84,0,3.33-1.49,3.33-3.33,0-1.84-1.49-3.33-3.33-3.33-1.84,0-3.33,1.49-3.33,3.33Z"/>
          </g>
          <path class="cls-17" d="M471.69,350.59c7.58-1.97,6.89-12.05,6.01-24.81-.13-1.9-.27-3.88-.38-5.91-.88-15.43,3.12-23.27,3.16-23.34l-.68-.36c-.17.32-4.13,8.08-3.24,23.74.12,2.03.25,4.01.38,5.92.89,12.89,1.53,22.2-5.44,24.01l.19.74Z"/>
        </g>
      </g>
      <g>
        <path class="cls-33" d="M389.83,201.66c0,.5.4.9.9.9.5,0,.9-.4.9-.9,0-.5-.4-.9-.9-.9-.5,0-.9.4-.9.9Z"/>
        <path class="cls-33" d="M380.03,201.63c0,.5.4.9.9.9.5,0,.9-.4.9-.9,0-.5-.4-.9-.9-.9-.5,0-.9.4-.9.9Z"/>
        <path class="cls-33" d="M388.89,198.83l-.3-.52c.14-.08,3.45-1.93,5.95-.29l-.33.5c-2.2-1.45-5.3.29-5.33.31Z"/>
        <path class="cls-33" d="M387.36,212.27l-.08-.59c2.52-.33,4.73-1.87,4.75-1.89l.35.49c-.1.07-2.35,1.65-5.02,1.99Z"/>
        <path class="cls-33" d="M377.79,199.68l-.51-.3s1.56-2.55,4.55-1.35l-.22.55c-2.53-1.02-3.76,1.02-3.81,1.1Z"/>
        <path class="cls-37" d="M385.76,208.45l-2.49-.69.16-.32c1.04-2.12,1.38-4.46,1.03-6.97l.59-.08c.36,2.5.04,4.85-.93,6.99l1.8.5-.16.58Z"/>
      </g>
    </g>
  </g>
</svg>