<?xml version="1.0" encoding="UTF-8"?>
<svg id="Capa_1" data-name="Capa 1" xmlns="http://www.w3.org/2000/svg" viewBox="0 0 71.77 107.08">
  <defs>
    <style>
      .cls-1 {
        fill-rule: evenodd;
      }
    </style>
  </defs>
  <g id="CIMADE_VERTICAL" data-name="CIMADE VERTICAL">
    <path class="cls-1" d="M62.74,97.99v-17.33h8.9v2.86h-5.68v4.02h5.28v2.76h-5.28v4.78h5.81v2.92h-9.03ZM49.2,97.99v-17.33h5.18c1.06,0,1.89.07,2.52.27.63.17,1.16.46,1.56.86.6.6,1.03,1.36,1.29,2.26.23.9.37,2.29.37,4.22,0,2.46-.1,4.18-.27,5.21-.17,1.03-.46,1.89-.86,2.59-.4.73-.96,1.23-1.66,1.49-.73.3-1.96.43-3.68.43h-4.45ZM52.35,95.43h1.43c.73,0,1.23-.07,1.53-.17.3-.1.53-.27.7-.53.3-.46.53-1.06.66-1.86.1-.76.17-2.03.17-3.75s-.07-2.92-.2-3.68c-.17-.76-.43-1.33-.76-1.73-.2-.2-.43-.33-.73-.4-.3-.1-.76-.13-1.39-.13h-1.39v12.25ZM35.32,97.99l3.88-17.33h4.35l3.92,17.33h-3.45l-.86-4.35h-3.72l-.83,4.35h-3.29ZM39.94,91.02h2.76l-1.39-7.27-1.36,7.27ZM19.16,97.99v-17.33h4.85l2.39,11.22,2.36-11.22h4.88v17.33h-3.09l.07-15.37-3.22,15.37h-1.99l-3.22-15.37.07,15.37h-3.09ZM12.98,80.66h3.22v17.33h-3.22v-17.33ZM7.24,91.81h3.12c0,.07,0,.17.03.33v.33c0,2.03-.43,3.49-1.26,4.48-.86.96-2.16,1.46-3.88,1.46-.83,0-1.53-.13-2.12-.33-.6-.23-1.1-.56-1.53-1-.6-.6-1-1.43-1.26-2.49-.23-1.06-.33-2.89-.33-5.48,0-1.79.07-3.22.2-4.28.13-1.03.37-1.83.66-2.36.46-.8,1.03-1.36,1.73-1.73s1.59-.53,2.66-.53c1.76,0,3.05.46,3.85,1.36.8.93,1.2,2.39,1.2,4.42h-3.12v-.4c0-.93-.17-1.63-.46-2.09-.3-.46-.76-.7-1.39-.7-.76,0-1.29.3-1.59.96-.27.63-.4,2.39-.4,5.28,0,3.12.13,5.01.4,5.71.27.66.8,1,1.56,1s1.23-.27,1.53-.8c.27-.53.43-1.49.43-2.92v-.23Z"/>
    <path class="cls-1" d="M55.14,107.02l1-3.65h.53l1,3.65h-.4l-.3-1.06h-1.13l-.27,1.06h-.43ZM55.9,105.59h.96l-.46-1.89-.5,1.89ZM52.72,103.37h.4v2.46c0,.33.03.56.13.7s.27.2.5.2.4-.07.53-.2c.1-.17.17-.4.17-.7v-2.46h.4v2.39c0,.3-.03.53-.07.63-.03.13-.1.27-.17.37-.1.1-.23.2-.37.27-.17.03-.33.07-.5.07-.2,0-.37-.03-.53-.1-.13-.07-.27-.13-.33-.27-.07-.07-.13-.2-.13-.3-.03-.13-.03-.37-.03-.66v-2.39ZM49.9,107.02v-3.65h.53l1.26,3.12-.03-3.12h.4v3.65h-.53l-1.26-3.22.03,3.22h-.4ZM48.83,103.37h.4v3.65h-.4v-3.65ZM47.14,107.02v-3.25h-.93v-.4h2.22v.4h-.86v3.25h-.43ZM43.69,107.02v-3.65h.53l1.26,3.12-.03-3.12h.4v3.65h-.53l-1.29-3.22.03,3.22h-.37ZM40.77,105.19c0-.66.1-1.16.27-1.46.2-.3.5-.43.9-.43.43,0,.73.13.9.43.2.3.27.8.27,1.46,0,.7-.07,1.16-.27,1.46-.17.3-.46.43-.9.43-.4,0-.7-.13-.9-.43-.17-.3-.27-.8-.27-1.46h0ZM41.2,105.19c0,.6.03,1,.17,1.23.1.2.3.33.56.33.3,0,.46-.13.6-.33.1-.23.17-.63.17-1.23s-.07-1-.17-1.23c-.13-.2-.3-.3-.6-.3-.27,0-.46.1-.56.33-.13.2-.17.63-.17,1.2h0ZM39.84,105.69h.4c0,.46-.1.8-.3,1.06-.17.23-.43.33-.8.33s-.66-.13-.83-.43c-.17-.33-.27-.8-.27-1.46s.07-1.16.27-1.46c.17-.3.46-.43.86-.43.33,0,.6.1.76.27.17.2.27.46.27.83v.07h-.4c0-.27-.03-.46-.17-.6-.1-.13-.27-.2-.46-.2-.27,0-.43.1-.53.33-.13.27-.17.66-.17,1.2,0,.56.03.93.17,1.16.1.23.3.37.53.37s.37-.1.5-.27c.1-.17.17-.4.17-.73v-.03ZM34.09,107.02v-3.65h.56l1.26,3.12-.07-3.12h.4v3.65h-.5l-1.29-3.22.03,3.22h-.4ZM32.07,103.03l.4-.63h.43l-.6.63h-.23ZM31.21,105.19c0-.66.07-1.16.27-1.46.2-.3.46-.43.9-.43.4,0,.7.13.9.43.17.3.27.8.27,1.46,0,.7-.1,1.16-.27,1.46-.2.3-.5.43-.9.43s-.7-.13-.9-.43c-.2-.3-.27-.8-.27-1.46h0ZM31.6,105.19c0,.6.07,1,.17,1.23.13.2.33.33.6.33s.46-.13.56-.33c.13-.23.17-.63.17-1.23s-.03-1-.17-1.23c-.1-.2-.3-.3-.56-.3s-.46.1-.6.33c-.1.2-.17.63-.17,1.2h0ZM30.21,103.37h.4v3.65h-.4v-3.65ZM29.18,105.69h.4c0,.46-.1.8-.27,1.06-.2.23-.46.33-.8.33-.4,0-.66-.13-.86-.43-.17-.33-.27-.8-.27-1.46s.1-1.16.27-1.46c.2-.3.46-.43.86-.43.33,0,.6.1.8.27.17.2.27.46.27.83v.07h-.4c0-.27-.07-.46-.17-.6-.13-.13-.3-.2-.5-.2-.23,0-.4.1-.53.33-.1.27-.17.66-.17,1.2,0,.56.07.93.17,1.16.13.23.3.37.56.37.2,0,.37-.1.46-.27.13-.17.17-.4.17-.73v-.03ZM24.57,107.02l1-3.65h.5l1.03,3.65h-.43l-.27-1.06h-1.16l-.27,1.06h-.4ZM25.33,105.59h.96l-.46-1.89-.5,1.89ZM23.8,105.69h.4c0,.46-.1.8-.3,1.06-.17.23-.43.33-.8.33s-.63-.13-.83-.43c-.17-.33-.27-.8-.27-1.46s.1-1.16.27-1.46c.17-.3.46-.43.86-.43.33,0,.6.1.76.27.2.2.27.46.27.83v.07h-.37c0-.27-.07-.46-.2-.6-.1-.13-.27-.2-.46-.2-.27,0-.43.1-.53.33-.1.27-.17.66-.17,1.2,0,.56.07.93.17,1.16.1.23.3.37.56.37.2,0,.37-.1.46-.27.1-.17.17-.4.17-.73v-.03ZM19.29,103.37h.43v2.46c0,.33.03.56.13.7.1.13.27.2.5.2s.4-.07.53-.2c.1-.17.17-.4.17-.7v-2.46h.4v2.39c0,.3-.03.53-.07.63-.03.13-.1.27-.17.37-.1.1-.23.2-.37.27-.17.03-.33.07-.5.07-.2,0-.37-.03-.53-.1-.13-.07-.27-.13-.33-.27-.07-.07-.13-.2-.13-.3-.03-.13-.07-.37-.07-.66v-2.39ZM16.47,107.02v-3.65h1.03c.43,0,.73.17.93.43.2.27.3.7.3,1.26,0,.43-.03.76-.1,1.03-.07.27-.17.46-.33.63-.1.1-.2.17-.33.23-.1.03-.3.07-.53.07h-.96ZM16.9,106.65h.53c.17,0,.3,0,.37-.03.1-.03.2-.1.23-.17.1-.13.17-.3.2-.46.03-.2.03-.46.03-.8,0-.56-.03-.96-.17-1.16s-.37-.3-.7-.3h-.5v2.92ZM14.11,107.02v-3.65h1.79v.4h-1.39v1.16h1.33v.37h-1.33v1.33h1.43v.4h-1.83Z"/>
    <g>
      <path d="M58.01,30.81l-11.92-23.28h0c5.76,12.19,4.12,18.85.77,25.9l-8.51,17.42h10.15c1.53,0,2.92-.88,3.58-2.25l5.99-12.5c.8-1.68.78-3.63-.07-5.28Z"/>
      <path d="M46.09,7.53c-.4-.84-.82-1.7-1.29-2.59C41.87-.66,40.22-.05,29.83.09h0s17.04,33.34,17.04,33.34c3.35-7.05,4.98-13.71-.77-25.9Z"/>
      <path d="M13.76,39.82l11.92,23.28h0c-5.76-12.19-4.12-18.85-.77-25.9l8.51-17.42h-10.15c-1.53,0-2.92.88-3.58,2.25l-5.99,12.5c-.8,1.68-.78,3.63.07,5.28Z"/>
      <path d="M25.68,63.1c.4.84.82,1.7,1.29,2.59,2.93,5.6,4.58,4.99,14.98,4.85h0s-17.04-33.34-17.04-33.34c-3.35,7.05-4.98,13.71.77,25.9Z"/>
      <circle cx="35.87" cy="35.34" r="4.99"/>
    </g>
  </g>
</svg>