<?xml version="1.0" encoding="UTF-8"?>
<svg id="Capa_1" data-name="Capa 1" xmlns="http://www.w3.org/2000/svg" viewBox="0 0 388.19 69.52">
  <g id="Layer_1" data-name="Layer 1">
    <g>
      <g>
        <rect x="283.86" y="2.53" width=".92" height="63.86"/>
        <g>
          <path d="M27.7,44.28h12.02c0,.29.02.71.04,1.27s.04,1,.04,1.31c0,7.67-1.62,13.36-4.85,17.08-3.23,3.72-8.18,5.58-14.84,5.58-3.16,0-5.87-.41-8.14-1.23s-4.22-2.09-5.86-3.81c-2.24-2.3-3.82-5.46-4.74-9.48C.46,50.99,0,43.98,0,33.99,0,27.15.27,21.72.82,17.68c.54-4.03,1.39-7.04,2.54-9.02,1.78-3.04,3.99-5.25,6.63-6.61,2.64-1.37,6.02-2.05,10.12-2.05,6.72,0,11.61,1.75,14.67,5.25,3.06,3.5,4.6,9.13,4.63,16.89h-11.97v-1.59c0-3.59-.58-6.27-1.74-8.03-1.16-1.77-2.94-2.65-5.32-2.65-2.96,0-4.98,1.22-6.05,3.66-1.08,2.44-1.62,9.19-1.62,20.24,0,11.95.52,19.21,1.57,21.8,1.05,2.58,3.05,3.88,6.01,3.88,2.76,0,4.68-1.01,5.77-3.04,1.09-2.02,1.64-5.77,1.64-11.22v-.91h0Z"/>
          <path d="M48.7,67.93V1.59h12.36v66.34h-12.36Z"/>
          <path d="M71.37,67.93V1.59h18.61l9.09,42.95L108.16,1.59h18.61v66.34h-11.8l.26-58.84-12.36,58.84h-7.58l-12.36-58.84.3,58.84h-11.85Z"/>
          <path d="M132.21,67.93L147.16,1.59h16.58l15.08,66.34h-13.31l-3.27-16.67h-14.22l-3.19,16.67h-12.62ZM149.96,41.31h10.51l-5.3-27.83-5.21,27.83Z"/>
          <path d="M184.36,67.93V1.59h19.86c4.05,0,7.27.34,9.67,1.03,2.4.69,4.37,1.81,5.92,3.36,2.33,2.27,3.97,5.13,4.93,8.59.96,3.46,1.44,8.84,1.44,16.13,0,9.42-.33,16.08-.99,19.97-.66,3.89-1.78,7.2-3.36,9.93-1.52,2.73-3.64,4.63-6.35,5.71-2.71,1.08-7.42,1.62-14.11,1.62h-17.01ZM196.46,58.15h5.47c2.78,0,4.74-.2,5.86-.6,1.12-.4,2.01-1.09,2.67-2.07,1.15-1.72,1.97-4.08,2.46-7.09.49-3,.73-7.8.73-14.41s-.29-11.11-.86-14.04c-.57-2.93-1.55-5.14-2.93-6.63-.72-.75-1.64-1.27-2.78-1.57-1.13-.3-2.91-.45-5.32-.45h-5.3v46.87h0Z"/>
          <path d="M235.25,67.93V1.59h34.07v11.03h-21.79v15.33h20.29v10.51h-20.29v18.26h22.31v11.2h-34.59Z"/>
        </g>
        <g>
          <path d="M299.67,32.79v-15.92h7.9v1.65h-6.14v5.12h5.74v1.61h-5.74v5.86h6.2v1.68h-7.96Z"/>
          <path d="M308.99,32.79v-15.92h4.51c1.81,0,3.14.6,3.99,1.81.85,1.21,1.28,3.08,1.28,5.62,0,1.79-.15,3.27-.44,4.43-.29,1.16-.75,2.08-1.38,2.77-.43.47-.91.8-1.45,1-.54.2-1.34.3-2.4.3h-4.12ZM310.77,31.27h2.3c.74,0,1.32-.08,1.73-.23s.73-.4.97-.73c.37-.54.64-1.22.81-2.04.16-.81.25-1.95.25-3.42,0-2.57-.27-4.29-.81-5.15-.54-.86-1.54-1.29-3.01-1.29h-2.24v12.86h0Z"/>
          <path d="M320.28,16.87h1.78v10.71c0,1.49.21,2.52.64,3.11.42.58,1.15.87,2.17.87s1.8-.32,2.28-.96c.49-.64.73-1.65.73-3.02v-10.71h1.74v10.39c0,1.34-.08,2.29-.23,2.85-.15.55-.41,1.05-.76,1.47-.43.52-.97.91-1.61,1.17-.64.26-1.36.4-2.18.4s-1.58-.14-2.24-.43-1.19-.7-1.57-1.22c-.27-.36-.46-.82-.57-1.38-.11-.56-.17-1.51-.17-2.86v-10.39Z"/>
          <path d="M338.94,26.94h1.76c-.02,2.02-.44,3.56-1.26,4.63-.82,1.06-1.99,1.6-3.53,1.6-1.64,0-2.86-.68-3.64-2.03-.79-1.35-1.18-3.44-1.18-6.27s.39-5.09,1.17-6.4c.78-1.32,2.05-1.98,3.79-1.98,1.45,0,2.58.42,3.36,1.27s1.18,2.05,1.18,3.6v.2h-1.72c0-1.09-.25-1.94-.76-2.56s-1.21-.93-2.09-.93c-1.08,0-1.86.53-2.34,1.58-.47,1.05-.71,2.8-.71,5.24s.24,4.08.73,5.09c.49,1.01,1.3,1.51,2.42,1.51.9,0,1.6-.37,2.08-1.11.48-.74.73-1.8.73-3.17v-.25h0Z"/>
          <path d="M341.21,32.79l4.34-15.92h2.26l4.4,15.92h-1.8l-1.21-4.59h-5.04l-1.16,4.59h-1.8ZM344.56,26.59h4.24l-2.12-8.34-2.12,8.34Z"/>
          <path d="M360.42,26.94h1.76c-.02,2.02-.44,3.56-1.26,4.63-.82,1.06-1.99,1.6-3.53,1.6-1.64,0-2.86-.68-3.64-2.03-.79-1.35-1.18-3.44-1.18-6.27s.39-5.09,1.17-6.4c.78-1.32,2.05-1.98,3.79-1.98,1.45,0,2.58.42,3.36,1.27s1.18,2.05,1.18,3.6v.2h-1.72c0-1.09-.25-1.94-.76-2.56s-1.21-.93-2.09-.93c-1.08,0-1.86.53-2.34,1.58-.47,1.05-.71,2.8-.71,5.24s.24,4.08.73,5.09,1.3,1.51,2.42,1.51c.9,0,1.6-.37,2.08-1.11.48-.74.73-1.8.73-3.17v-.25h0Z"/>
          <path d="M363.79,32.79v-15.92h1.82v15.92h-1.82Z"/>
          <path d="M367.07,24.82c0-2.96.4-5.1,1.2-6.39.8-1.3,2.1-1.95,3.9-1.95s3.11.64,3.91,1.93,1.19,3.42,1.19,6.41-.4,5.13-1.19,6.41-2.1,1.93-3.91,1.93-3.09-.65-3.89-1.97c-.81-1.31-1.21-3.44-1.21-6.38h0ZM368.92,24.82c0,2.56.24,4.32.73,5.3.48.98,1.33,1.47,2.52,1.47s2.06-.48,2.54-1.43c.48-.95.72-2.74.72-5.34s-.24-4.37-.72-5.32-1.32-1.43-2.54-1.43-2.04.49-2.52,1.46c-.48.98-.73,2.74-.73,5.29ZM370.93,15.35l1.76-2.81h1.84l-2.55,2.81h-1.04Z"/>
          <path d="M378.74,32.79v-15.92h2.38l5.52,13.66-.16-13.66h1.72v15.92h-2.27l-5.6-14.06.14,14.06h-1.72Z"/>
        </g>
        <g>
          <path d="M305.94,50.17h2.88c0,.07,0,.17.01.31s.01.24.01.32c0,1.84-.39,3.21-1.16,4.1s-1.96,1.34-3.56,1.34c-.76,0-1.41-.1-1.95-.3s-1.01-.5-1.41-.92c-.54-.55-.92-1.31-1.14-2.27-.22-.96-.33-2.65-.33-5.04,0-1.64.07-2.95.2-3.91s.33-1.69.61-2.17c.43-.73.96-1.26,1.59-1.59.63-.33,1.44-.49,2.43-.49,1.61,0,2.79.42,3.52,1.26s1.1,2.19,1.11,4.05h-2.87v-.38c0-.86-.14-1.5-.42-1.93s-.71-.64-1.28-.64c-.71,0-1.19.29-1.45.88s-.39,2.21-.39,4.86c0,2.87.13,4.61.38,5.23s.73.93,1.44.93c.66,0,1.12-.24,1.39-.73s.39-1.38.39-2.69v-.22h0Z"/>
          <path d="M309.81,47.89c0-1.69.08-3.04.24-4.05.16-1.01.41-1.77.74-2.28.46-.72,1.01-1.24,1.65-1.55.64-.31,1.48-.46,2.53-.46s1.89.15,2.53.46,1.2.83,1.66,1.55c.34.52.58,1.29.74,2.29.15,1.01.23,2.35.23,4.03s-.08,3.02-.24,4.03c-.16,1.01-.4,1.78-.73,2.3-.47.72-1.02,1.24-1.66,1.55s-1.48.46-2.53.46-1.89-.15-2.53-.46c-.64-.31-1.19-.83-1.65-1.55-.34-.51-.59-1.27-.74-2.28-.16-1.01-.24-2.36-.24-4.05ZM312.84,47.89c0,2.62.15,4.27.46,4.95.31.68.87,1.02,1.7,1.02s1.37-.33,1.67-1,.45-2.32.45-4.97-.15-4.31-.45-4.98c-.3-.67-.86-1.01-1.68-1.01s-1.38.34-1.68,1.01c-.3.67-.45,2.34-.45,4.98h0Z"/>
          <path d="M321.48,55.85v-15.92h3.05l4.15,11.13-.08-11.13h2.8v15.92h-3.03l-4.18-11.15.08,11.15h-2.79Z"/>
          <path d="M335.29,55.85v-13.29h-3.41v-2.62h9.79v2.62h-3.41v13.29h-2.97,0Z"/>
          <path d="M342.15,55.85v-15.92h2.97v15.92h-2.97Z"/>
          <path d="M346.74,55.85v-15.92h3.05l4.15,11.13-.08-11.13h2.8v15.92h-3.03l-4.18-11.15.08,11.15h-2.79Z"/>
          <path d="M358.28,39.93h2.97v10.73c0,1.23.15,2.06.45,2.5.3.44.83.66,1.6.66s1.28-.22,1.58-.66.44-1.29.44-2.53v-10.69h2.93v10.99c0,1.07-.06,1.85-.18,2.34s-.32.93-.61,1.3c-.43.56-.99.98-1.7,1.26s-1.54.42-2.5.42c-1.82,0-3.1-.4-3.85-1.18-.75-.79-1.12-2.17-1.12-4.13v-10.99h0Z"/>
          <path d="M368.68,55.85l3.59-15.92h3.98l3.62,15.92h-3.19l-.79-4h-3.41l-.76,4h-3.03,0ZM372.94,49.46h2.52l-1.27-6.68-1.25,6.68h0Z"/>
        </g>
      </g>
      <g>
        <rect x="283.86" y="2.53" width=".92" height="63.86"/>
        <g>
          <path d="M27.7,44.28h12.02c0,.29.02.71.04,1.27s.04,1,.04,1.31c0,7.67-1.62,13.36-4.85,17.08-3.23,3.72-8.18,5.58-14.84,5.58-3.16,0-5.87-.41-8.14-1.23s-4.22-2.09-5.86-3.81c-2.24-2.3-3.82-5.46-4.74-9.48C.46,50.99,0,43.98,0,33.99,0,27.15.27,21.72.82,17.68c.54-4.03,1.39-7.04,2.54-9.02,1.78-3.04,3.99-5.25,6.63-6.61,2.64-1.37,6.02-2.05,10.12-2.05,6.72,0,11.61,1.75,14.67,5.25,3.06,3.5,4.6,9.13,4.63,16.89h-11.97v-1.59c0-3.59-.58-6.27-1.74-8.03-1.16-1.77-2.94-2.65-5.32-2.65-2.96,0-4.98,1.22-6.05,3.66-1.08,2.44-1.62,9.19-1.62,20.24,0,11.95.52,19.21,1.57,21.8,1.05,2.58,3.05,3.88,6.01,3.88,2.76,0,4.68-1.01,5.77-3.04,1.09-2.02,1.64-5.77,1.64-11.22v-.91h0Z"/>
          <path d="M48.7,67.93V1.59h12.36v66.34h-12.36Z"/>
          <path d="M71.37,67.93V1.59h18.61l9.09,42.95L108.16,1.59h18.61v66.34h-11.8l.26-58.84-12.36,58.84h-7.58l-12.36-58.84.3,58.84h-11.85Z"/>
          <path d="M132.21,67.93L147.16,1.59h16.58l15.08,66.34h-13.31l-3.27-16.67h-14.22l-3.19,16.67h-12.62ZM149.96,41.31h10.51l-5.3-27.83-5.21,27.83Z"/>
          <path d="M184.36,67.93V1.59h19.86c4.05,0,7.27.34,9.67,1.03,2.4.69,4.37,1.81,5.92,3.36,2.33,2.27,3.97,5.13,4.93,8.59.96,3.46,1.44,8.84,1.44,16.13,0,9.42-.33,16.08-.99,19.97-.66,3.89-1.78,7.2-3.36,9.93-1.52,2.73-3.64,4.63-6.35,5.71-2.71,1.08-7.42,1.62-14.11,1.62h-17.01ZM196.46,58.15h5.47c2.78,0,4.74-.2,5.86-.6,1.12-.4,2.01-1.09,2.67-2.07,1.15-1.72,1.97-4.08,2.46-7.09.49-3,.73-7.8.73-14.41s-.29-11.11-.86-14.04c-.57-2.93-1.55-5.14-2.93-6.63-.72-.75-1.64-1.27-2.78-1.57-1.13-.3-2.91-.45-5.32-.45h-5.3v46.87h0Z"/>
          <path d="M235.25,67.93V1.59h34.07v11.03h-21.79v15.33h20.29v10.51h-20.29v18.26h22.31v11.2h-34.59Z"/>
        </g>
        <g>
          <path d="M299.67,32.79v-15.92h7.9v1.65h-6.14v5.12h5.74v1.61h-5.74v5.86h6.2v1.68h-7.96Z"/>
          <path d="M308.99,32.79v-15.92h4.51c1.81,0,3.14.6,3.99,1.81.85,1.21,1.28,3.08,1.28,5.62,0,1.79-.15,3.27-.44,4.43-.29,1.16-.75,2.08-1.38,2.77-.43.47-.91.8-1.45,1-.54.2-1.34.3-2.4.3h-4.12ZM310.77,31.27h2.3c.74,0,1.32-.08,1.73-.23s.73-.4.97-.73c.37-.54.64-1.22.81-2.04.16-.81.25-1.95.25-3.42,0-2.57-.27-4.29-.81-5.15-.54-.86-1.54-1.29-3.01-1.29h-2.24v12.86h0Z"/>
          <path d="M320.28,16.87h1.78v10.71c0,1.49.21,2.52.64,3.11.42.58,1.15.87,2.17.87s1.8-.32,2.28-.96c.49-.64.73-1.65.73-3.02v-10.71h1.74v10.39c0,1.34-.08,2.29-.23,2.85-.15.55-.41,1.05-.76,1.47-.43.52-.97.91-1.61,1.17-.64.26-1.36.4-2.18.4s-1.58-.14-2.24-.43-1.19-.7-1.57-1.22c-.27-.36-.46-.82-.57-1.38-.11-.56-.17-1.51-.17-2.86v-10.39Z"/>
          <path d="M338.94,26.94h1.76c-.02,2.02-.44,3.56-1.26,4.63-.82,1.06-1.99,1.6-3.53,1.6-1.64,0-2.86-.68-3.64-2.03-.79-1.35-1.18-3.44-1.18-6.27s.39-5.09,1.17-6.4c.78-1.32,2.05-1.98,3.79-1.98,1.45,0,2.58.42,3.36,1.27s1.18,2.05,1.18,3.6v.2h-1.72c0-1.09-.25-1.94-.76-2.56s-1.21-.93-2.09-.93c-1.08,0-1.86.53-2.34,1.58-.47,1.05-.71,2.8-.71,5.24s.24,4.08.73,5.09c.49,1.01,1.3,1.51,2.42,1.51.9,0,1.6-.37,2.08-1.11.48-.74.73-1.8.73-3.17v-.25h0Z"/>
          <path d="M341.21,32.79l4.34-15.92h2.26l4.4,15.92h-1.8l-1.21-4.59h-5.04l-1.16,4.59h-1.8ZM344.56,26.59h4.24l-2.12-8.34-2.12,8.34Z"/>
          <path d="M360.42,26.94h1.76c-.02,2.02-.44,3.56-1.26,4.63-.82,1.06-1.99,1.6-3.53,1.6-1.64,0-2.86-.68-3.64-2.03-.79-1.35-1.18-3.44-1.18-6.27s.39-5.09,1.17-6.4c.78-1.32,2.05-1.98,3.79-1.98,1.45,0,2.58.42,3.36,1.27s1.18,2.05,1.18,3.6v.2h-1.72c0-1.09-.25-1.94-.76-2.56s-1.21-.93-2.09-.93c-1.08,0-1.86.53-2.34,1.58-.47,1.05-.71,2.8-.71,5.24s.24,4.08.73,5.09,1.3,1.51,2.42,1.51c.9,0,1.6-.37,2.08-1.11.48-.74.73-1.8.73-3.17v-.25h0Z"/>
          <path d="M363.79,32.79v-15.92h1.82v15.92h-1.82Z"/>
          <path d="M367.07,24.82c0-2.96.4-5.1,1.2-6.39.8-1.3,2.1-1.95,3.9-1.95s3.11.64,3.91,1.93,1.19,3.42,1.19,6.41-.4,5.13-1.19,6.41-2.1,1.93-3.91,1.93-3.09-.65-3.89-1.97c-.81-1.31-1.21-3.44-1.21-6.38h0ZM368.92,24.82c0,2.56.24,4.32.73,5.3.48.98,1.33,1.47,2.52,1.47s2.06-.48,2.54-1.43c.48-.95.72-2.74.72-5.34s-.24-4.37-.72-5.32-1.32-1.43-2.54-1.43-2.04.49-2.52,1.46c-.48.98-.73,2.74-.73,5.29ZM370.93,15.35l1.76-2.81h1.84l-2.55,2.81h-1.04Z"/>
          <path d="M378.74,32.79v-15.92h2.38l5.52,13.66-.16-13.66h1.72v15.92h-2.27l-5.6-14.06.14,14.06h-1.72Z"/>
        </g>
        <g>
          <path d="M305.94,50.17h2.88c0,.07,0,.17.01.31s.01.24.01.32c0,1.84-.39,3.21-1.16,4.1s-1.96,1.34-3.56,1.34c-.76,0-1.41-.1-1.95-.3s-1.01-.5-1.41-.92c-.54-.55-.92-1.31-1.14-2.27-.22-.96-.33-2.65-.33-5.04,0-1.64.07-2.95.2-3.91s.33-1.69.61-2.17c.43-.73.96-1.26,1.59-1.59.63-.33,1.44-.49,2.43-.49,1.61,0,2.79.42,3.52,1.26s1.1,2.19,1.11,4.05h-2.87v-.38c0-.86-.14-1.5-.42-1.93s-.71-.64-1.28-.64c-.71,0-1.19.29-1.45.88s-.39,2.21-.39,4.86c0,2.87.13,4.61.38,5.23s.73.93,1.44.93c.66,0,1.12-.24,1.39-.73s.39-1.38.39-2.69v-.22h0Z"/>
          <path d="M309.81,47.89c0-1.69.08-3.04.24-4.05.16-1.01.41-1.77.74-2.28.46-.72,1.01-1.24,1.65-1.55.64-.31,1.48-.46,2.53-.46s1.89.15,2.53.46,1.2.83,1.66,1.55c.34.52.58,1.29.74,2.29.15,1.01.23,2.35.23,4.03s-.08,3.02-.24,4.03c-.16,1.01-.4,1.78-.73,2.3-.47.72-1.02,1.24-1.66,1.55s-1.48.46-2.53.46-1.89-.15-2.53-.46c-.64-.31-1.19-.83-1.65-1.55-.34-.51-.59-1.27-.74-2.28-.16-1.01-.24-2.36-.24-4.05ZM312.84,47.89c0,2.62.15,4.27.46,4.95.31.68.87,1.02,1.7,1.02s1.37-.33,1.67-1,.45-2.32.45-4.97-.15-4.31-.45-4.98c-.3-.67-.86-1.01-1.68-1.01s-1.38.34-1.68,1.01c-.3.67-.45,2.34-.45,4.98h0Z"/>
          <path d="M321.48,55.85v-15.92h3.05l4.15,11.13-.08-11.13h2.8v15.92h-3.03l-4.18-11.15.08,11.15h-2.79Z"/>
          <path d="M335.29,55.85v-13.29h-3.41v-2.62h9.79v2.62h-3.41v13.29h-2.97,0Z"/>
          <path d="M342.15,55.85v-15.92h2.97v15.92h-2.97Z"/>
          <path d="M346.74,55.85v-15.92h3.05l4.15,11.13-.08-11.13h2.8v15.92h-3.03l-4.18-11.15.08,11.15h-2.79Z"/>
          <path d="M358.28,39.93h2.97v10.73c0,1.23.15,2.06.45,2.5.3.44.83.66,1.6.66s1.28-.22,1.58-.66.44-1.29.44-2.53v-10.69h2.93v10.99c0,1.07-.06,1.85-.18,2.34s-.32.93-.61,1.3c-.43.56-.99.98-1.7,1.26s-1.54.42-2.5.42c-1.82,0-3.1-.4-3.85-1.18-.75-.79-1.12-2.17-1.12-4.13v-10.99h0Z"/>
          <path d="M368.68,55.85l3.59-15.92h3.98l3.62,15.92h-3.19l-.79-4h-3.41l-.76,4h-3.03,0ZM372.94,49.46h2.52l-1.27-6.68-1.25,6.68h0Z"/>
        </g>
      </g>
    </g>
  </g>
</svg>