<?xml version="1.0" encoding="UTF-8"?>
<svg id="Capa_1" data-name="Capa 1" xmlns="http://www.w3.org/2000/svg" viewBox="0 0 100 100">
  <defs>
    <style>
      .cls-1 {
        fill: #fff;
      }
    </style>
  </defs>
  <g id="CIMADE_VERTICAL" data-name="CIMADE VERTICAL">
    <g>
      <path class="cls-1" d="M81.33,43.62l-16.87-32.96h0c8.15,17.26,5.84,26.69,1.09,36.67l-12.04,24.66h14.37c2.16,0,4.13-1.24,5.06-3.19l8.49-17.71c1.14-2.37,1.1-5.14-.1-7.48Z"/>
      <path class="cls-1" d="M64.45,10.67c-.56-1.19-1.16-2.4-1.83-3.67C58.47-.93,56.14-.07,41.42.13h0s24.12,47.21,24.12,47.21c4.75-9.98,7.06-19.41-1.09-36.67Z"/>
      <path class="cls-1" d="M18.67,56.38l16.87,32.96h0c-8.15-17.26-5.84-26.69-1.09-36.67l12.04-24.66h-14.37c-2.16,0-4.13,1.24-5.06,3.19l-8.49,17.71c-1.14,2.37-1.1,5.14.1,7.48Z"/>
      <path class="cls-1" d="M35.55,89.33c.56,1.19,1.16,2.4,1.83,3.67,4.15,7.93,6.49,7.07,21.21,6.87h0s-24.12-47.21-24.12-47.21c-4.75,9.98-7.06,19.41,1.09,36.67Z"/>
      <circle class="cls-1" cx="49.98" cy="50.04" r="7.06"/>
    </g>
  </g>
</svg>