<?xml version="1.0" encoding="UTF-8"?>
<svg xmlns="http://www.w3.org/2000/svg" viewBox="0 0 554.07 579.05">
  <defs>
    <style>
      .cls-1 {
        opacity: .2;
      }

      .cls-1, .cls-2 {
        fill: #fff;
      }

      .cls-3 {
        fill: #d86212;
      }

      .cls-4 {
        fill: #b5d800;
      }

      .cls-5 {
        fill: #ebebed;
      }

      .cls-6 {
        fill: #12a8bd;
      }

      .cls-7 {
        fill: #c0c0ce;
      }

      .cls-7, .cls-8, .cls-9 {
        mix-blend-mode: multiply;
      }

      .cls-10 {
        fill: #462be2;
      }

      .cls-11 {
        fill: #e0ff00;
      }

      .cls-12 {
        fill: #b5d800;
      }

      .cls-13 {
        fill: #0d617b;
      }

      .cls-14 {
        opacity: .36;
      }

      .cls-15 {
        fill: #ef9d7f;
      }

      .cls-16 {
        fill: #ffbea4;
      }

      .cls-17 {
        isolation: isolate;
      }

      .cls-18 {
        fill: #37477c;
      }

      .cls-19 {
        fill: #ffa76c;
      }

      .cls-20 {
        fill: #ddd;
      }

      .cls-21 {
        fill: #252f5a;
      }

      .cls-22 {
        fill: #17203a;
      }

      .cls-23 {
        fill: #dd8b66;
      }

      .cls-24 {
        fill: #f5f5f7;
      }

      .cls-25 {
        fill: #ff8a33;
      }

      .cls-26 {
        fill: #23d87d;
      }

      .cls-27 {
        fill: #809103;
      }

      .cls-28 {
        fill: #33ff9d;
      }

      .cls-29 {
        fill: #1199a3;
      }

      .cls-9 {
        fill: #e2e2f7;
      }
    </style>
  </defs>
  <g class="cls-17">
    <g id="Capa_2" data-name="Capa 2">
      <g id="Capa_3" data-name="Capa 3">
        <g>
          <path class="cls-9" d="M485.63,523.83H34.52c-2.5,0-4.55-2.05-4.55-4.55h0c0-2.5,2.05-4.55,4.55-4.55h451.11c2.5,0,4.55,2.05,4.55,4.55h0c0,2.5-2.05,4.55-4.55,4.55Z"/>
          <g>
            <g>
              <path class="cls-2" d="M376.89,113.28c-.83,0-1.67-.05-2.51-.15-11.57-1.42-20.89-12.28-22.39-14.12-1.75,1.65-12.61,11.46-23.57,10.31-5.52-.57-10.22-3.79-13.98-9.57-8.07-12.4,1.74-30.96,11.4-44.35,12.23-16.97,28.65-31.76,38.73-38.33l.45-.3.02.54c.55,19.03,10.6,35.38,19.46,49.8,10.57,17.19,18.92,30.77,5.84,41.15-4.2,3.33-8.71,5.01-13.45,5.01ZM352.05,98.11l.21.27c.1.13,9.86,12.64,22.19,14.15,5.5.68,10.71-.92,15.51-4.73,12.66-10.05,4.44-23.43-5.98-40.36-8.82-14.35-18.81-30.6-19.53-49.56-10.07,6.68-26.12,21.23-38.12,37.89-13.49,18.71-17.53,34.22-11.38,43.66,3.66,5.62,8.21,8.75,13.53,9.3.58.06,1.16.09,1.74.09,11.01,0,21.47-10.35,21.58-10.46l.24-.24Z"/>
              <path class="cls-2" d="M367.28,164.33c-.13-.17-13.11-17.57-15.56-65.75-2.44-48.14,7.84-71.73,7.94-71.96l.55.25c-.1.23-10.33,23.71-7.89,71.69,2.44,47.95,15.31,65.24,15.44,65.41l-.48.37Z"/>
              <path class="cls-2" d="M381.3,90.78c-8.11-9.11-23.88-10.29-29.48-6.2l-.35-.49c5.9-4.31,21.83-3.2,30.29,6.29l-.45.4Z"/>
              <path class="cls-2" d="M351.72,72.66c-.11-.08-11.44-8.14-27.3-.58l-.26-.55c16.19-7.72,27.8.56,27.92.64l-.36.49Z"/>
              <path class="cls-2" d="M368.11,55.12c-.05-.07-5.37-6.82-14.11-3.62l-.21-.57c9.17-3.34,14.75,3.75,14.8,3.82l-.48.37Z"/>
              <path class="cls-2" d="M356.26,38.18s-2.68-2.24-8.18-.21l-.21-.57c5.85-2.16,8.67.22,8.78.32l-.4.45Z"/>
              <path class="cls-2" d="M322.34,85.07l-.29-.53c16.24-9.01,29.6-2.01,29.74-1.94l-.29.53c-.13-.07-13.21-6.9-29.16,1.94Z"/>
              <path class="cls-2" d="M374.8,71.13c-11.03-8.44-22.4-3.23-22.51-3.18l-.26-.55c.12-.06,11.81-5.43,23.14,3.24l-.37.48Z"/>
              <path class="cls-2" d="M353.01,56.53c-.07-.06-6.9-6.1-17.45-1.78l-.23-.56c10.91-4.47,18.02,1.83,18.08,1.9l-.41.45Z"/>
              <path class="cls-2" d="M364.68,41.15c-3.46-3.18-8.63-.34-8.69-.31l-.3-.53c.06-.03,5.61-3.08,9.4.39l-.41.45Z"/>
              <path class="cls-2" d="M358.17,31.22s-1.06-1.07-3.63-.3l-.17-.58c2.97-.88,4.19.42,4.25.47l-.45.41.22-.2-.22.21Z"/>
            </g>
            <g>
              <path class="cls-4" d="M83.13,456.61c-.66,0-1.33-.02-2.01-.07-16.66-1.22-17.4-17.15-18.34-37.3-.79-16.91-1.68-36.08-11.94-52.12l-.29-.45h.54c12.06-.24,33.94,2.74,53.59,9.88,15.51,5.64,34.07,15.46,34.38,30.25.14,6.89-1.93,12.2-6.17,15.78-8.41,7.11-22.92,5.12-25.29,4.74-.21,2.36-1.79,16.58-10.56,24.27-3.82,3.35-8.49,5.04-13.92,5.04ZM51.64,367.24c10.07,16.08,10.96,35.13,11.74,51.96.92,19.86,1.65,35.54,17.77,36.73,6.13.46,11.32-1.17,15.48-4.81,9.35-8.19,10.37-24.02,10.38-24.18l.02-.35.34.06c.16.03,16.2,2.98,25.12-4.55,4.09-3.45,6.09-8.6,5.95-15.3-.23-11.27-12.3-21.82-33.98-29.69-18.85-6.85-39.78-9.87-52-9.87-.28,0-.56,0-.83,0Z"/>
              <path class="cls-4" d="M131.73,489.9l-.61-.03c.01-.21.92-21.75-24.05-62.76-25-41.04-46.65-54.69-46.87-54.82l.32-.52c.22.13,22,13.85,47.07,55.02,25.09,41.2,24.16,62.89,24.14,63.11Z"/>
              <path class="cls-4" d="M78.74,436.99l-.6-.08c1.63-12.46,13.89-22.25,21.24-22.25.09,0,.17,0,.26,0l-.02.61c-.08,0-.16,0-.23,0-6.97,0-19.08,9.76-20.64,21.73Z"/>
              <path class="cls-4" d="M93,405.37l-.57-.2c.05-.13,4.98-13.51,22.72-16.24l.09.6c-17.36,2.67-22.19,15.71-22.23,15.84Z"/>
              <path class="cls-4" d="M69.57,400.09l-.61-.03c0-.09.62-9.09,10.09-11.49l.15.59c-9.04,2.29-9.62,10.85-9.63,10.94Z"/>
              <path class="cls-4" d="M69.84,379.42l-.59-.15c.04-.15,1.02-3.7,7.08-5.2l.15.59c-5.69,1.42-6.63,4.74-6.64,4.77Z"/>
              <path class="cls-4" d="M99.07,413.9l-.54-.28c.07-.13,7.17-13.43,25.68-15.13l.06.6c-18.16,1.67-25.13,14.68-25.19,14.81Z"/>
              <path class="cls-4" d="M73.06,417.09l-.58-.19c4.49-13.54,17.17-15.68,17.3-15.7l.09.6c-.13.02-12.45,2.12-16.82,15.3Z"/>
              <path class="cls-4" d="M82.85,392.76l-.59-.14c.02-.09,2.35-9.3,13.88-11.74l.13.59c-11.16,2.37-13.4,11.2-13.42,11.29Z"/>
              <path class="cls-4" d="M64.55,386.61l-.59-.14c1.17-5,7.48-5.61,7.54-5.62l.05.61c-.06,0-5.94.58-7.01,5.15Z"/>
              <path class="cls-4" d="M64.34,374.74l-.6-.09c.01-.08.3-1.84,3.24-2.78l.18.58c-2.56.81-2.82,2.23-2.83,2.29Z"/>
            </g>
            <g>
              <path class="cls-21" d="M287.28,103.52s-13.86,42.3-46.91,30.91c-40.79-14.06,9.45-77.26-8.88-134.43,36.53,8.88,115.47,50.63,106.62,87.14-8.85,36.52-50.83,16.37-50.83,16.37Z"/>
              <path class="cls-2" d="M297.87,199.43l-.58-.19c.09-.29,9.24-29.76-10.31-95.64-19.55-65.9-44.53-92.72-44.78-92.98l.44-.42c.25.26,25.32,27.17,44.92,93.22,19.61,66.1,10.4,95.71,10.3,96Z"/>
              <path class="cls-2" d="M243.96,106.9l-.56-.23c6.86-16.77,27.71-25.81,37.7-22.82l-.18.58c-9.53-2.85-30.33,6.27-36.97,22.47Z"/>
              <path class="cls-2" d="M275.25,68.36l-.5-.34c.11-.17,11.77-16.79,37.22-14.09l-.07.6c-25.06-2.67-36.54,13.66-36.66,13.83Z"/>
              <path class="cls-2" d="M244.78,52.54l-.58-.19c.04-.12,4.1-12.11,17.77-12.11.08,0,.16,0,.25,0v.61c-.09,0-.17,0-.24,0-13.24,0-17.16,11.58-17.2,11.69Z"/>
              <path class="cls-2" d="M252.72,24.03l-.53-.3c.11-.19,2.7-4.67,11.58-4.54v.61c-8.48-.13-11.03,4.19-11.05,4.23Z"/>
              <path class="cls-2" d="M280.54,82.37l-.45-.41c.15-.16,14.78-15.9,40.91-11.49l-.1.6c-25.79-4.35-40.22,11.14-40.36,11.3Z"/>
              <path class="cls-2" d="M243.4,77.29l-.51-.33c11.11-17.02,29.36-15.33,29.54-15.32l-.06.6c-.19-.02-18.07-1.64-28.97,15.05Z"/>
              <path class="cls-2" d="M265.83,47.23l-.53-.29c.06-.12,6.18-11.14,21.69-11.14.55,0,1.1.01,1.67.04l-.03.61c-16.39-.83-22.74,10.66-22.8,10.77Z"/>
              <path class="cls-2" d="M242.76,32.04l-.53-.28c3.4-6.41,12.25-4.95,12.34-4.93l-.1.6c-.08-.01-8.51-1.39-11.7,4.62Z"/>
              <path class="cls-2" d="M246.82,15.56l-.56-.24c.04-.1,1.05-2.37,5.39-2.58l.03.61c-3.93.19-4.82,2.13-4.86,2.21Z"/>
            </g>
            <g>
              <path class="cls-21" d="M67.18,439.85s6.01,24.13-13.01,28.57c-23.48,5.47-18.49-39.36-44.16-60.95,19.92-6.66,69.68-10.37,76.34,9.54,6.67,19.9-19.18,22.85-19.18,22.85Z"/>
              <path class="cls-2" d="M100.24,482.19c-.04-.17-4.47-16.79-33.26-42.12-28.82-25.35-48.57-30.6-48.76-30.65l.15-.59c.2.05,20.09,5.33,49.01,30.78,28.95,25.47,33.41,42.26,33.45,42.42l-.59.15Z"/>
              <path class="cls-2" d="M47.23,454.41c-1.75-10.04,5.5-20.59,11.15-22.15l.16.58c-5.32,1.47-12.38,11.89-10.71,21.47l-.6.1Z"/>
              <path class="cls-2" d="M51.18,426.8l-.61-.02c0-.11.59-11.53,13.5-17.84l.26.54c-12.57,6.15-13.15,17.21-13.16,17.32Z"/>
              <path class="cls-2" d="M31.47,428.48c-.02-.07-1.7-7.12,4.98-11.23l.32.52c-6.3,3.87-4.78,10.3-4.71,10.57l-.59.15Z"/>
              <path class="cls-2" d="M26.74,412.54c0-.13-.11-3.1,4.19-5.71l.31.52c-3.97,2.41-3.9,5.14-3.9,5.17l-.61.03Z"/>
              <path class="cls-2" d="M57.84,431.87l-.6-.11c.02-.12,2.28-11.99,16.02-17.7l.23.56c-13.42,5.58-15.64,17.13-15.66,17.25Z"/>
              <path class="cls-2" d="M38.76,440.49h-.61c.2-11.44,9.4-16.11,9.49-16.16l.27.54c-.09.04-8.96,4.56-9.16,15.61Z"/>
              <path class="cls-2" d="M39.84,419.63c0-.08-.42-7.69,7.82-12.32l.3.53c-7.92,4.44-7.52,11.68-7.52,11.75l-.6.04Z"/>
              <path class="cls-2" d="M24.41,419.3c-.3-4.14,4.41-6.11,4.46-6.13l.23.56s-4.35,1.84-4.08,5.53l-.6.04Z"/>
              <path class="cls-2" d="M21.44,410.34c0-.06-.22-1.52,1.84-2.95l.34.5c-1.72,1.2-1.59,2.31-1.58,2.36l-.6.09Z"/>
            </g>
            <g>
              <path class="cls-4" d="M474.63,442.21s-7.67,34.2,19.28,39.81c33.26,6.93,24.73-56.06,60.16-87.35-28.29-8.71-98.5-12.28-107.23,15.99-8.72,28.26,27.78,31.55,27.78,31.55Z"/>
              <path class="cls-21" d="M429.35,502.93l-.59-.13c.05-.24,5.76-24,45.66-60.82,39.88-36.79,67.69-44.89,67.97-44.97l.17.58c-.28.08-27.97,8.15-67.72,44.84-39.77,36.7-45.43,60.27-45.48,60.51Z"/>
              <path class="cls-21" d="M503.09,462.02l-.6-.09c2.04-13.6-8.32-28.11-15.9-30.02l.15-.59c7.97,2,18.47,16.55,16.35,30.69Z"/>
              <path class="cls-21" d="M496.86,423.28c0-.16-1.2-15.79-19.19-24.07l.25-.55c18.33,8.43,19.53,24.42,19.54,24.58l-.61.04Z"/>
              <path class="cls-21" d="M524.44,424.97l-.59-.13c.02-.09,2.04-9.58-7.05-14.86l.3-.52c9.48,5.52,7.36,15.42,7.34,15.52Z"/>
              <path class="cls-21" d="M530.56,402.38h-.61c0-.05,0-3.96-5.73-7.27l.3-.52c6.08,3.5,6.04,7.62,6.03,7.79Z"/>
              <path class="cls-21" d="M487.64,430.63c-.04-.16-3.55-16.42-22.71-23.86l.22-.56c19.49,7.56,23.05,24.13,23.08,24.3l-.59.12Z"/>
              <path class="cls-21" d="M514.81,442.15c-.65-15.64-13.37-21.74-13.49-21.8l.26-.55c.13.06,13.18,6.3,13.84,22.32l-.61.02Z"/>
              <path class="cls-21" d="M512.34,412.8l-.61-.03c0-.1.3-10.39-11.05-16.41l.28-.53c11.7,6.2,11.37,16.86,11.37,16.97Z"/>
              <path class="cls-21" d="M534.07,411.82l-.61-.03c.26-5.31-5.95-7.76-6.02-7.78l.22-.57c.07.03,6.68,2.63,6.4,8.37Z"/>
              <path class="cls-21" d="M537.96,399.08l-.6-.08.3.04-.3-.04c0-.07.17-1.71-2.37-3.39l.34-.51c2.88,1.91,2.65,3.89,2.63,3.98Z"/>
            </g>
            <g>
              <path class="cls-21" d="M484.71,412.38c-3.9,0-7.57-.88-10.99-2.63-14.54-7.45-19.97-28.67-20.65-31.58-2.8.91-23.28,7.09-38.82-.52-7.46-3.66-12.73-9.93-15.64-18.65-7.71-23.1,13.35-33.07,40.02-45.69,22.44-10.62,47.88-22.66,63.8-45.62l.31-.44.22.49c7.11,16.12,15.43,47.42,16.87,78.01,1.13,24.12-1.66,54.7-21.41,63.44-4.83,2.13-9.41,3.2-13.71,3.2ZM453.52,377.38l.07.34c.05.23,5.12,23.66,20.41,31.5,7.02,3.6,15.16,3.4,24.18-.59,15.17-6.71,22.64-29.03,21.05-62.85-1.42-30.21-9.56-61.09-16.6-77.3-16.03,22.8-41.36,34.79-63.73,45.38-26.4,12.5-47.25,22.36-39.71,44.95,2.86,8.56,8.02,14.72,15.33,18.3,16.42,8.05,38.46.47,38.68.39l.32-.11Z"/>
              <path class="cls-21" d="M381.89,446.19l-.2-.57c.29-.1,29.96-11.04,71.36-68.02,41.41-56.99,47.64-94.03,47.7-94.4l.6.09c-.06.37-6.3,37.54-47.8,94.66-41.53,57.16-71.36,68.13-71.65,68.23Z"/>
              <path class="cls-21" d="M464.86,360.71c-3.62-9.54-24.02-20.77-41.33-16.06l-.16-.59c17.93-4.86,38.27,6.46,42.06,16.43l-.57.21Z"/>
              <path class="cls-21" d="M508.5,367.27c-13.46-22.06-33.89-21.22-34.11-21.19l-.03-.61c.22,0,21.02-.87,34.66,21.48l-.52.32Z"/>
              <path class="cls-21" d="M488.64,318.31c-8.26-11.01-20.27-6.93-20.39-6.89l-.2-.57c.13-.04,12.55-4.27,21.07,7.1l-.48.36Z"/>
              <path class="cls-21" d="M506.72,306.45c-5.18-6.97-10.29-6.35-10.33-6.35l-.09-.6c.22-.03,5.48-.71,10.91,6.58l-.49.36Z"/>
              <path class="cls-21" d="M500.65,384.89c-12.55-23.7-34.15-25.77-34.36-25.79l.05-.61c.22.02,22.14,2.11,34.84,26.11l-.53.28Z"/>
              <path class="cls-21" d="M477.58,339.91c-.1-.16-9.96-15.7-30.31-14.18l-.05-.6c20.76-1.58,30.77,14.3,30.87,14.46l-.52.32Z"/>
              <path class="cls-21" d="M508.68,337.06c-9.55-13.83-22.85-11.85-22.99-11.83l-.1-.6c.14-.02,13.82-2.06,23.58,12.08l-.5.35Z"/>
              <path class="cls-21" d="M494.73,303.65c-.04-.08-4.19-7.81-11.07-6.64l-.1-.6c7.3-1.22,11.66,6.88,11.7,6.96l-.53.28Z"/>
              <path class="cls-21" d="M504.44,292.6c-2.61-3.08-4.81-2.58-4.84-2.58l-.15-.59c.1-.03,2.57-.62,5.45,2.77l-.46.39Z"/>
            </g>
          </g>
          <g>
            <g>
              <path class="cls-24" d="M53.4,509.89c9.36,0,9.36-74.66,0-74.66h279.4c9.36,0,9.36,74.66,0,74.66H53.4Z"/>
              <g>
                <path class="cls-5" d="M338.25,448.05H58.36c-.67,0-1.21-.54-1.21-1.21s.54-1.21,1.21-1.21h279.89c.67,0,1.21.54,1.21,1.21s-.54,1.21-1.21,1.21Z"/>
                <path class="cls-5" d="M338.25,462.75H58.36c-.67,0-1.21-.54-1.21-1.21s.54-1.21,1.21-1.21h279.89c.67,0,1.21.54,1.21,1.21s-.54,1.21-1.21,1.21Z"/>
                <path class="cls-5" d="M338.25,484.8H58.36c-.67,0-1.21-.54-1.21-1.21s.54-1.21,1.21-1.21h279.89c.67,0,1.21.54,1.21,1.21s-.54,1.21-1.21,1.21Z"/>
                <path class="cls-5" d="M338.25,499.5H58.36c-.67,0-1.21-.54-1.21-1.21s.54-1.21,1.21-1.21h279.89c.67,0,1.21.54,1.21,1.21s-.54,1.21-1.21,1.21Z"/>
                <path class="cls-5" d="M338.25,455.4H58.36c-.67,0-1.21-.54-1.21-1.21s.54-1.21,1.21-1.21h279.89c.67,0,1.21.54,1.21,1.21s-.54,1.21-1.21,1.21Z"/>
                <path class="cls-5" d="M338.25,470.1H58.36c-.67,0-1.21-.54-1.21-1.21s.54-1.21,1.21-1.21h279.89c.67,0,1.21.54,1.21,1.21s-.54,1.21-1.21,1.21Z"/>
                <path class="cls-5" d="M338.25,477.45H58.36c-.67,0-1.21-.54-1.21-1.21s.54-1.21,1.21-1.21h279.89c.67,0,1.21.54,1.21,1.21s-.54,1.21-1.21,1.21Z"/>
                <path class="cls-5" d="M338.25,492.15H58.36c-.67,0-1.21-.54-1.21-1.21s.54-1.21,1.21-1.21h279.89c.67,0,1.21.54,1.21,1.21s-.54,1.21-1.21,1.21Z"/>
              </g>
              <g>
                <path class="cls-13" d="M332.8,509.89c9.36,0,9.36-74.66,0-74.66h136.41c9.36,0,9.36,74.66,0,74.66h-136.41Z"/>
                <path class="cls-13" d="M469.2,430.4h-136.41c-2.66,0-4.84,2.18-4.84,4.84,0,2.13,1.38,3.92,3.27,4.57,5.06,8.01,5.06,57.48,0,65.5-1.89.65-3.27,2.47-3.27,4.57,0,2.69,2.18,4.84,4.84,4.84h136.41c2.95,0,11.88,0,11.88-42.16s-8.93-42.16-11.88-42.16ZM467.8,505.04h-126.29c1.82-6.12,3.17-16.12,3.17-32.48s-1.36-26.36-3.17-32.48h126.29c4.84,8.69,4.84,56.3,0,64.96Z"/>
              </g>
              <g class="cls-14">
                <path class="cls-6" d="M442.45,505.04c-.68,3.9-1.48,7.21-2.44,9.68h-35.92c.97-2.47,1.77-5.78,2.44-9.68,2.95-17.64,2.95-47.32,0-64.96-.68-3.9-1.48-7.21-2.44-9.68h35.92c.97,2.47,1.77,5.78,2.44,9.68,2.98,17.64,2.98,47.32,0,64.96Z"/>
              </g>
              <path class="cls-6" d="M332.8,514.74H53.4c-2.67,0-4.84-2.17-4.84-4.84s2.17-4.84,4.84-4.84h277.98c4.85-8.68,4.85-56.29,0-64.97H53.4c-2.67,0-4.84-2.17-4.84-4.84s2.17-4.84,4.84-4.84h279.4c2.93,0,11.86,0,11.86,42.17s-8.93,42.17-11.86,42.17ZM332.8,440.08h.02-.02Z"/>
              <g class="cls-8">
                <path class="cls-5" d="M298.58,455.02v32.68c0,1.23,1.21,2.09,2.37,1.7l7.8-2.63,7.8,2.63c1.16.39,2.37-.47,2.37-1.7v-32.68c0-.87-.71-1.58-1.58-1.58h-17.2c-.87,0-1.58.71-1.58,1.58Z"/>
                <path class="cls-5" d="M300.37,490.7c-.62,0-1.24-.19-1.75-.56-.78-.56-1.25-1.47-1.25-2.44v-32.68c0-1.54,1.25-2.79,2.78-2.79h17.2c1.54,0,2.79,1.25,2.79,2.79v32.68c0,.96-.47,1.88-1.25,2.44-.78.56-1.8.72-2.71.41l-7.42-2.5-7.42,2.5c-.31.11-.64.16-.96.16ZM308.75,485.56c.13,0,.26.02.39.06l7.8,2.63c.25.09.44-.01.53-.08.09-.06.24-.21.24-.48v-32.68c0-.2-.17-.37-.37-.37h-17.2c-.2,0-.36.17-.36.37v32.68c0,.26.15.41.24.48.09.07.29.17.53.08l7.8-2.63c.13-.04.26-.06.39-.06Z"/>
              </g>
              <g>
                <path class="cls-28" d="M297.42,454.14v32.68c0,1.23,1.21,2.09,2.37,1.7l7.8-2.63,7.8,2.63c1.16.39,2.37-.47,2.37-1.7v-32.68c0-.87-.71-1.58-1.58-1.58h-17.2c-.87,0-1.58.71-1.58,1.58Z"/>
                <path class="cls-28" d="M315.97,489.83c-.32,0-.65-.05-.96-.16l-7.42-2.5-7.41,2.5c-.93.31-1.94.15-2.72-.41-.78-.56-1.25-1.48-1.25-2.44v-32.68c0-1.54,1.25-2.79,2.79-2.79h17.2c1.54,0,2.78,1.25,2.78,2.79v32.68c0,.97-.47,1.88-1.25,2.44-.52.37-1.13.56-1.75.56ZM298.99,453.78c-.2,0-.37.17-.37.37v32.68c0,.26.15.41.24.48.09.07.29.17.53.08l7.8-2.63c.25-.09.52-.09.78,0l7.8,2.63c.24.09.43-.01.53-.08.09-.06.24-.21.24-.48v-32.68c0-.2-.16-.37-.36-.37h-17.2Z"/>
              </g>
            </g>
            <g>
              <path class="cls-5" d="M482.85,425.56c-9.36,0-9.36-74.66,0-74.66h-173.85c-9.36,0-9.36,74.66,0,74.66h173.85Z"/>
              <g>
                <path class="cls-24" d="M303.55,363.71h174.34c.67,0,1.21-.54,1.21-1.21s-.54-1.21-1.21-1.21h-174.34c-.67,0-1.21.54-1.21,1.21s.54,1.21,1.21,1.21Z"/>
                <path class="cls-24" d="M303.55,378.41h174.34c.67,0,1.21-.54,1.21-1.21s-.54-1.21-1.21-1.21h-174.34c-.67,0-1.21.54-1.21,1.21s.54,1.21,1.21,1.21Z"/>
                <path class="cls-24" d="M303.55,400.47h174.34c.67,0,1.21-.54,1.21-1.21s-.54-1.21-1.21-1.21h-174.34c-.67,0-1.21.54-1.21,1.21s.54,1.21,1.21,1.21Z"/>
                <path class="cls-24" d="M303.55,415.17h174.34c.67,0,1.21-.54,1.21-1.21s-.54-1.21-1.21-1.21h-174.34c-.67,0-1.21.54-1.21,1.21s.54,1.21,1.21,1.21Z"/>
                <path class="cls-24" d="M303.55,371.06h174.34c.67,0,1.21-.54,1.21-1.21s-.54-1.21-1.21-1.21h-174.34c-.67,0-1.21.54-1.21,1.21s.54,1.21,1.21,1.21Z"/>
                <path class="cls-24" d="M303.55,385.76h174.34c.67,0,1.21-.54,1.21-1.21s-.54-1.21-1.21-1.21h-174.34c-.67,0-1.21.54-1.21,1.21s.54,1.21,1.21,1.21Z"/>
                <path class="cls-24" d="M303.55,393.11h174.34c.67,0,1.21-.54,1.21-1.21s-.54-1.21-1.21-1.21h-174.34c-.67,0-1.21.54-1.21,1.21s.54,1.21,1.21,1.21Z"/>
                <path class="cls-24" d="M303.55,407.82h174.34c.67,0,1.21-.54,1.21-1.21s-.54-1.21-1.21-1.21h-174.34c-.67,0-1.21.54-1.21,1.21s.54,1.21,1.21,1.21Z"/>
              </g>
              <g>
                <path class="cls-25" d="M309,425.56c-9.36,0-9.36-74.66,0-74.66H116.6c-9.36,0-9.36,74.66,0,74.66h192.41Z"/>
                <path class="cls-25" d="M116.61,346.06h192.41c2.66,0,4.84,2.18,4.84,4.84,0,2.13-1.38,3.92-3.27,4.57-5.06,8.01-5.06,57.48,0,65.5,1.89.65,3.27,2.47,3.27,4.57,0,2.69-2.18,4.84-4.84,4.84H116.61c-2.95,0-11.88,0-11.88-42.16s8.93-42.16,11.88-42.16ZM118.01,420.71h182.29c-1.82-6.12-3.17-16.12-3.17-32.48s1.36-26.36,3.17-32.48H118.01c-4.84,8.69-4.84,56.3,0,64.96Z"/>
              </g>
              <path class="cls-19" d="M143.35,420.71c.68,3.9,1.48,7.21,2.44,9.68h18.58c-.97-2.47-1.77-5.78-2.44-9.68-2.95-17.64-2.95-47.32,0-64.96.68-3.9,1.48-7.21,2.44-9.68h-18.58c-.97,2.47-1.77,5.78-2.44,9.68-2.98,17.64-2.98,47.32,0,64.96Z"/>
              <path class="cls-19" d="M252.78,420.71c.68,3.9,1.48,7.21,2.44,9.68h18.58c-.97-2.47-1.77-5.78-2.44-9.68-2.95-17.64-2.95-47.32,0-64.96.68-3.9,1.48-7.21,2.44-9.68h-18.58c-.97,2.47-1.77,5.78-2.44,9.68-2.98,17.64-2.98,47.32,0,64.96Z"/>
              <path class="cls-19" d="M169.49,420.71c.68,3.9,1.48,7.21,2.44,9.68h11.63c-.97-2.47-1.77-5.78-2.44-9.68-2.95-17.64-2.95-47.32,0-64.96.68-3.9,1.48-7.21,2.44-9.68h-11.63c-.97,2.47-1.77,5.78-2.44,9.68-2.98,17.64-2.98,47.32,0,64.96Z"/>
              <path class="cls-19" d="M185.79,420.71c.68,3.9,1.48,7.21,2.44,9.68h11.63c-.97-2.47-1.77-5.78-2.44-9.68-2.95-17.64-2.95-47.32,0-64.96.68-3.9,1.48-7.21,2.44-9.68h-11.63c-.97,2.47-1.77,5.78-2.44,9.68-2.98,17.64-2.98,47.32,0,64.96Z"/>
              <path class="cls-3" d="M309,430.4h173.85c2.67,0,4.84-2.17,4.84-4.84s-2.17-4.84-4.84-4.84h-172.43c-4.85-8.68-4.85-56.29,0-64.97h172.43c2.67,0,4.84-2.17,4.84-4.84s-2.17-4.84-4.84-4.84h-173.85c-2.93,0-11.86,0-11.86,42.17s8.93,42.17,11.86,42.17ZM309,355.74h-.02.02Z"/>
              <g class="cls-8">
                <path class="cls-5" d="M343.23,370.68v32.68c0,1.23-1.21,2.09-2.37,1.7l-7.8-2.63-7.8,2.63c-1.16.39-2.37-.47-2.37-1.7v-32.68c0-.87.71-1.58,1.58-1.58h17.2c.87,0,1.58.71,1.58,1.58Z"/>
                <path class="cls-5" d="M341.43,406.37c.62,0,1.24-.19,1.75-.56.78-.56,1.25-1.47,1.25-2.44v-32.68c0-1.54-1.25-2.79-2.78-2.79h-17.2c-1.54,0-2.79,1.25-2.79,2.79v32.68c0,.96.47,1.88,1.25,2.44.78.56,1.8.72,2.71.41l7.42-2.5,7.42,2.5c.31.11.64.16.96.16ZM333.05,401.22c-.13,0-.26.02-.39.06l-7.8,2.63c-.25.09-.44-.01-.53-.08-.09-.06-.24-.21-.24-.48v-32.68c0-.2.17-.37.37-.37h17.2c.2,0,.36.17.36.37v32.68c0,.26-.15.41-.24.48-.09.07-.29.17-.53.08l-7.8-2.63c-.13-.04-.26-.06-.39-.06Z"/>
              </g>
              <g>
                <path class="cls-4" d="M344.39,369.8v32.68c0,1.23-1.21,2.09-2.37,1.7l-7.8-2.63-7.8,2.63c-1.16.39-2.37-.47-2.37-1.7v-32.68c0-.87.71-1.58,1.58-1.58h17.2c.87,0,1.58.71,1.58,1.58Z"/>
                <path class="cls-4" d="M325.84,405.49c.32,0,.65-.05.96-.16l7.42-2.5,7.41,2.5c.93.31,1.94.15,2.72-.41.78-.56,1.25-1.48,1.25-2.44v-32.68c0-1.54-1.25-2.79-2.79-2.79h-17.2c-1.54,0-2.78,1.25-2.78,2.79v32.68c0,.97.47,1.88,1.25,2.44.52.37,1.13.56,1.75.56ZM342.81,369.44c.2,0,.37.17.37.37v32.68c0,.26-.15.41-.24.48-.09.07-.29.17-.53.08l-7.8-2.63c-.25-.09-.52-.09-.78,0l-7.8,2.63c-.24.08-.43-.01-.53-.08-.09-.06-.24-.21-.24-.48v-32.68c0-.2.16-.37.36-.37h17.2Z"/>
              </g>
            </g>
            <g>
              <g>
                <path class="cls-26" d="M138.81,296.97h319.51c17.25,0,17.25,45.52,0,45.52H138.81"/>
                <path class="cls-26" d="M458.33,346.32H138.81c-2.12,0-3.83-1.72-3.83-3.83s1.72-3.83,3.83-3.83h319.51c5.91,0,9.1-9.75,9.1-18.93s-3.19-18.93-9.1-18.93H138.81c-2.12,0-3.83-1.72-3.83-3.83s1.72-3.83,3.83-3.83h319.51c11.52,0,16.77,13.78,16.77,26.59s-5.25,26.59-16.77,26.59Z"/>
              </g>
              <path class="cls-24" d="M43.77,342.49c17.25,0,17.25-45.52,0-45.52h221.16c17.25,0,17.25,45.52,0,45.52H43.77Z"/>
              <g>
                <path class="cls-5" d="M269.25,311.96H54.88c-.53,0-.96-.43-.96-.96s.43-.96.96-.96h214.37c.53,0,.96.43.96.96s-.43.96-.96.96Z"/>
                <path class="cls-5" d="M269.25,329.42H54.88c-.53,0-.96-.43-.96-.96s.43-.96.96-.96h214.37c.53,0,.96.43.96.96s-.43.96-.96.96Z"/>
                <path class="cls-5" d="M269.25,306.14H53.52c-.53,0-.96-.43-.96-.96s.43-.96.96-.96h215.72c.53,0,.96.43.96.96s-.43.96-.96.96Z"/>
                <path class="cls-5" d="M269.25,317.78H56.24c-.53,0-.96-.43-.96-.96s.43-.96.96-.96h213.01c.53,0,.96.43.96.96s-.43.96-.96.96Z"/>
                <path class="cls-5" d="M269.25,323.6H56.24c-.53,0-.96-.43-.96-.96s.43-.96.96-.96h213.01c.53,0,.96.43.96.96s-.43.96-.96.96Z"/>
                <path class="cls-5" d="M269.25,335.23H53.52c-.53,0-.96-.43-.96-.96s.43-.96.96-.96h215.72c.53,0,.96.43.96.96s-.43.96-.96.96Z"/>
              </g>
              <path class="cls-28" d="M264.93,346.32H43.77c-2.12,0-3.83-1.72-3.83-3.83s1.72-3.83,3.83-3.83h221.16c5.91,0,9.1-9.75,9.1-18.93s-3.19-18.93-9.1-18.93H43.77c-2.12,0-3.83-1.72-3.83-3.83s1.72-3.83,3.83-3.83h221.16c11.52,0,16.77,13.78,16.77,26.59s-5.25,26.59-16.77,26.59Z"/>
              <g>
                <g class="cls-8">
                  <path class="cls-5" d="M239.75,307.25v15.64c0,.97.95,1.66,1.88,1.35l6.18-2.08,6.18,2.08c.92.31,1.88-.37,1.88-1.35v-15.64c0-.69-.56-1.25-1.25-1.25h-13.61c-.69,0-1.25.56-1.25,1.25Z"/>
                  <path class="cls-5" d="M241.18,325.28c-.49,0-.98-.15-1.39-.45-.62-.45-.99-1.17-.99-1.93v-15.64c0-1.22.99-2.21,2.21-2.21h13.61c1.22,0,2.21.99,2.21,2.21v15.64c0,.77-.37,1.49-.99,1.93-.62.45-1.43.56-2.15.32l-5.87-1.98-5.87,1.98c-.25.08-.51.13-.76.13ZM241,306.96c-.16,0-.29.13-.29.29v15.64c0,.21.12.33.19.38.07.05.22.13.42.06l6.18-2.08c.2-.07.41-.07.61,0l6.18,2.08c.2.06.35-.01.42-.06.07-.05.19-.17.19-.38v-15.64c0-.16-.13-.29-.29-.29h-13.61Z"/>
                </g>
                <g>
                  <path class="cls-25" d="M238.84,306.56v15.64c0,.97.95,1.66,1.88,1.35l6.18-2.08,6.18,2.08c.92.31,1.88-.37,1.88-1.35v-15.64c0-.69-.56-1.25-1.25-1.25h-13.61c-.69,0-1.25.56-1.25,1.25Z"/>
                  <path class="cls-25" d="M240.26,324.58c-.49,0-.98-.15-1.39-.45-.62-.45-.99-1.17-.99-1.93v-15.64c0-1.22.99-2.2,2.2-2.2h13.61c1.22,0,2.21.99,2.21,2.2v15.64c0,.76-.37,1.49-.99,1.93s-1.42.57-2.15.32l-5.87-1.98-5.87,1.98c-.25.08-.5.12-.76.12ZM246.89,320.51c.1,0,.21.02.31.05l6.18,2.08c.2.06.35-.01.42-.06.07-.05.19-.17.19-.38v-15.64c0-.16-.13-.29-.29-.29h-13.61c-.16,0-.29.13-.29.29v15.64c0,.21.12.33.19.38.07.05.23.13.42.06l6.18-2.08c.1-.03.2-.05.31-.05Z"/>
                </g>
              </g>
              <path class="cls-28" d="M452.27,325.66h-149.14c-3.26,0-5.93-2.67-5.93-5.93h0c0-3.26,2.67-5.93,5.93-5.93h149.14c3.26,0,5.93,2.67,5.93,5.93h0c0,3.26-2.67,5.93-5.93,5.93Z"/>
            </g>
            <g>
              <g>
                <path class="cls-10" d="M110.33,288.3h86.66c11.89-6.45,20.74-21.05,20.78-40.09l41.09-145.95h247.36l-41.09,145.95c-.03,19.04-8.89,33.64-20.78,40.09h-140.76"/>
                <path class="cls-29" d="M444.34,293.14h-140.75c-2.67,0-4.84-2.17-4.84-4.84s2.17-4.84,4.84-4.84h139.47c10.62-6.36,17.19-19.74,17.21-35.26,0-.44.06-.88.18-1.3l39.35-139.79h-237.3l-39.92,141.79c-.23,19.28-9.12,35.97-23.3,43.66-.71.39-1.5.59-2.31.59h-86.66c-2.67,0-4.84-2.17-4.84-4.84s2.17-4.84,4.84-4.84h85.38c10.62-6.36,17.19-19.74,17.22-35.26,0-.44.06-.88.18-1.3l41.09-145.95c.59-2.09,2.49-3.53,4.66-3.53h247.35c1.52,0,2.94.71,3.86,1.92.91,1.21,1.21,2.77.8,4.23l-40.91,145.32c-.23,19.28-9.12,35.96-23.3,43.66-.71.38-1.5.59-2.31.59Z"/>
              </g>
              <path class="cls-24" d="M217.09,268.58c-6.54-7.23,38.3-163.31,51.39-163.31h234.37l-44.94,162.7-240.81.61Z"/>
              <g>
                <path class="cls-5" d="M236.44,241.78c-.06,0-.11,0-.17-.01-.66-.09-1.12-.7-1.03-1.36,5.15-37.55,17.57-78.28,37.97-124.51.27-.61.98-.89,1.6-.62.61.27.89.98.62,1.6-20.31,46.03-32.67,86.55-37.79,123.87-.08.61-.6,1.05-1.2,1.05Z"/>
                <path class="cls-5" d="M243.93,241.78c-.05,0-.11,0-.17-.01-.66-.09-1.13-.7-1.04-1.36,5.14-37.75,17.56-78.48,37.97-124.52.27-.61.99-.89,1.6-.62.61.27.89.99.61,1.6-20.32,45.83-32.68,86.35-37.79,123.86-.08.61-.6,1.05-1.2,1.05Z"/>
                <path class="cls-5" d="M251.41,241.78c-.05,0-.11,0-.17-.01-.66-.09-1.13-.7-1.04-1.36,5.12-37.93,17.55-78.66,37.97-124.52.27-.61,1-.88,1.6-.61.61.27.89.99.61,1.6-20.33,45.65-32.69,86.16-37.79,123.86-.08.61-.6,1.05-1.2,1.05Z"/>
                <path class="cls-5" d="M258.9,241.78c-.05,0-.11,0-.16-.01-.66-.09-1.13-.7-1.04-1.36,5.04-37.58,17.81-79.48,37.97-124.52.27-.61.99-.88,1.6-.61.61.27.88.99.61,1.6-20.06,44.84-32.77,86.51-37.78,123.86-.08.61-.6,1.05-1.2,1.05Z"/>
                <path class="cls-5" d="M266.38,241.78c-.05,0-.11,0-.16-.01-.66-.09-1.13-.7-1.04-1.36,5.03-37.77,17.81-79.67,37.97-124.53.27-.61.99-.88,1.6-.61.61.27.88.99.61,1.6-20.07,44.65-32.78,86.32-37.78,123.85-.08.61-.6,1.05-1.2,1.05Z"/>
                <path class="cls-5" d="M273.87,241.78c-.05,0-.11,0-.16-.01-.66-.09-1.13-.69-1.04-1.36,5.01-37.94,17.79-79.84,37.97-124.53.28-.61.99-.88,1.6-.6.61.28.88.99.61,1.6-20.09,44.47-32.8,86.14-37.78,123.85-.08.61-.6,1.05-1.2,1.05Z"/>
                <path class="cls-5" d="M281.35,241.78c-.05,0-.11,0-.16-.01-.66-.09-1.13-.69-1.04-1.36,5-38.13,17.78-80.02,37.98-124.53.28-.61,1-.88,1.6-.6.61.28.88.99.6,1.6-20.1,44.29-32.81,85.96-37.78,123.85-.08.61-.6,1.05-1.2,1.05Z"/>
                <path class="cls-5" d="M288.84,241.78c-.05,0-.11,0-.16-.01-.66-.09-1.13-.69-1.04-1.36,4.99-38.3,17.77-80.2,37.98-124.54.28-.61,1-.88,1.6-.6.61.28.88,1,.6,1.6-20.11,44.11-32.82,85.78-37.78,123.84-.08.61-.6,1.05-1.2,1.05Z"/>
                <path class="cls-5" d="M296.32,241.78c-.05,0-.1,0-.16,0-.66-.09-1.13-.69-1.04-1.36,4.97-38.47,17.75-80.37,37.98-124.54.28-.61,1-.87,1.6-.6.61.28.87,1,.6,1.6-20.13,43.95-32.84,85.61-37.78,123.84-.08.61-.6,1.06-1.2,1.06Z"/>
                <path class="cls-5" d="M303.81,241.78c-.05,0-.1,0-.16,0-.66-.09-1.13-.69-1.05-1.35,3.75-29.19,11.56-59,23.88-91.15.24-.62.94-.94,1.56-.7.62.24.94.94.7,1.56-12.25,31.96-20.02,61.6-23.74,90.59-.08.61-.6,1.06-1.2,1.06Z"/>
                <path class="cls-5" d="M311.3,241.78c-.05,0-.1,0-.16,0-.66-.09-1.13-.69-1.05-1.35,4.94-38.82,17.72-80.72,37.98-124.55.28-.61,1-.87,1.61-.59.61.28.87,1,.59,1.61-20.16,43.6-32.87,85.26-37.78,123.83-.08.61-.6,1.06-1.2,1.06Z"/>
                <path class="cls-5" d="M318.78,241.78c-.05,0-.1,0-.15,0-.66-.08-1.13-.69-1.05-1.35,4.92-38.98,17.7-80.88,37.98-124.55.28-.61,1-.87,1.61-.59.61.28.87,1,.59,1.61-20.17,43.44-32.88,85.1-37.77,123.83-.08.61-.6,1.06-1.2,1.06Z"/>
                <path class="cls-5" d="M326.27,241.78c-.05,0-.1,0-.15,0-.66-.08-1.13-.69-1.05-1.35,4.91-39.16,17.69-81.06,37.98-124.55.28-.61,1.01-.86,1.61-.59.61.28.87,1,.59,1.61-20.19,43.26-32.89,84.92-37.77,123.83-.08.61-.6,1.06-1.2,1.06Z"/>
                <path class="cls-5" d="M333.75,241.78s-.1,0-.15,0c-.66-.08-1.13-.69-1.05-1.35,4.89-39.32,17.67-81.22,37.98-124.56.28-.61,1.01-.87,1.61-.58.61.28.87,1,.58,1.61-20.2,43.1-32.91,84.76-37.77,123.83-.08.61-.6,1.06-1.2,1.06Z"/>
                <path class="cls-5" d="M341.24,241.78s-.1,0-.15,0c-.66-.08-1.13-.69-1.05-1.35,4.87-39.47,17.65-81.38,37.98-124.56.28-.6,1.01-.87,1.61-.58.61.28.87,1.01.58,1.61-20.22,42.95-32.93,84.6-37.77,123.82-.08.61-.6,1.06-1.2,1.06Z"/>
                <path class="cls-5" d="M348.72,241.78s-.1,0-.15,0c-.66-.08-1.14-.68-1.05-1.35,4.86-39.65,17.64-81.55,37.98-124.56.29-.61,1.01-.86,1.61-.58.61.29.86,1.01.58,1.61-20.24,42.77-32.94,84.43-37.77,123.82-.08.61-.6,1.06-1.2,1.06Z"/>
                <path class="cls-5" d="M356.21,241.78s-.1,0-.15,0c-.66-.08-1.13-.68-1.05-1.35,3.23-26.53,10-54.12,20.12-82.02.23-.63.92-.95,1.55-.73.63.23.95.92.72,1.55-10.06,27.72-16.79,55.14-20,81.48-.07.61-.6,1.06-1.2,1.06Z"/>
                <path class="cls-5" d="M363.7,241.78s-.1,0-.15,0c-.66-.08-1.14-.68-1.06-1.35,4.82-39.96,17.6-81.87,37.99-124.57.29-.6,1-.86,1.61-.57.6.29.86,1.01.57,1.61-20.27,42.46-32.98,84.12-37.77,123.81-.07.61-.6,1.06-1.2,1.06Z"/>
                <path class="cls-5" d="M371.18,241.78s-.1,0-.15,0c-.66-.08-1.14-.68-1.06-1.35,4.81-40.13,17.59-82.04,37.99-124.57.29-.61,1.02-.86,1.61-.57.6.29.86,1.01.57,1.61-20.29,42.29-32.99,83.95-37.77,123.81-.07.61-.6,1.07-1.2,1.07Z"/>
                <path class="cls-5" d="M378.66,241.78s-.1,0-.14,0c-.66-.08-1.14-.68-1.06-1.34,4.79-40.28,17.57-82.19,37.99-124.57.29-.6,1.02-.86,1.61-.56.6.29.86,1.01.56,1.62-20.31,42.14-33.01,83.79-37.77,123.81-.07.61-.6,1.07-1.2,1.07Z"/>
                <path class="cls-5" d="M386.15,241.78s-.1,0-.14,0c-.66-.08-1.14-.68-1.06-1.34,4.77-40.44,17.55-82.35,37.99-124.58.29-.6,1.01-.85,1.62-.56.6.29.85,1.02.56,1.62-20.32,41.98-33.03,83.64-37.77,123.81-.07.62-.59,1.07-1.2,1.07Z"/>
                <path class="cls-5" d="M393.64,241.78s-.09,0-.14,0c-.66-.08-1.14-.68-1.06-1.34,4.75-40.59,17.53-82.51,38-124.58.29-.6,1.03-.84,1.62-.56.6.29.85,1.02.56,1.62-20.34,41.83-33.05,83.48-37.76,123.8-.07.62-.6,1.07-1.2,1.07Z"/>
                <path class="cls-5" d="M401.12,241.78s-.09,0-.14,0c-.66-.08-1.14-.68-1.06-1.34,4.73-40.74,17.51-82.66,38-124.58.3-.6,1.02-.85,1.62-.56.6.29.85,1.02.56,1.62-20.36,41.68-33.07,83.33-37.76,123.8-.07.62-.6,1.07-1.2,1.07Z"/>
                <path class="cls-5" d="M408.61,241.78s-.09,0-.14,0c-.66-.08-1.14-.68-1.06-1.34,4.71-40.89,17.5-82.81,37.99-124.59.3-.6,1.02-.85,1.62-.55.6.29.85,1.02.55,1.62-20.38,41.53-33.08,83.18-37.76,123.8-.07.62-.6,1.07-1.2,1.07Z"/>
                <path class="cls-5" d="M416.09,241.78s-.09,0-.14,0c-.66-.08-1.14-.67-1.07-1.34,4.69-41.05,17.47-82.96,38-124.59.3-.6,1.03-.84,1.62-.55.6.3.85,1.02.55,1.62-20.4,41.37-33.1,83.02-37.76,123.79-.07.62-.6,1.07-1.2,1.07Z"/>
                <path class="cls-5" d="M423.58,241.78s-.09,0-.14,0c-.66-.07-1.14-.67-1.07-1.34,4.67-41.19,17.45-83.11,38-124.59.3-.6,1.03-.84,1.62-.55.6.3.84,1.02.55,1.62-20.42,41.23-33.12,82.88-37.76,123.79-.07.62-.59,1.07-1.2,1.07Z"/>
                <path class="cls-5" d="M431.06,241.78s-.09,0-.14,0c-.66-.08-1.14-.67-1.07-1.34,2.04-18.14,5.67-36.54,10.78-54.71.18-.64.84-1.02,1.49-.84.64.18,1.02.85.84,1.49-5.07,18.05-8.67,36.32-10.7,54.33-.07.62-.59,1.07-1.2,1.07Z"/>
              </g>
              <path class="cls-20" d="M500.27,105.27c-9.89,5.74-24.14,35-36.1,76.08-22.92,78.72-21.43,71.32-8.66,79.52,12.23,7.86,7.86,1.34,7.86,1.34l40.9-157.33-3.99.4Z"/>
              <path class="cls-2" d="M71.55,288.3s12.27-12.82,17.78-23.49c.68-1.32,2.09-2.06,3.56-1.88,12.26,1.46,67.77,7.35,131.22,2.84,38.8-2.75,168.73-21.63,226.8-8.53,7.2,1.62,10.97,9.7,7.57,16.26-3.35,6.47-8.2,13.35-14.14,14.8H71.55Z"/>
              <path class="cls-20" d="M309.92,261.35c-.36,9.73-3.56,22.81-4.62,26.94h139.05c5.94-1.45,10.79-8.31,14.14-14.78,3.42-6.6-.42-14.66-7.67-16.29-32.58-7.32-87.68-4.62-136.66-.32-2.34.2-4.15,2.1-4.24,4.45Z"/>
              <path class="cls-29" d="M375.73,293.14H56.23c-2.67,0-4.84-2.17-4.84-4.84s2.17-4.84,4.84-4.84h319.5c2.67,0,4.84,2.17,4.84,4.84s-2.17,4.84-4.84,4.84Z"/>
              <path class="cls-13" d="M444.34,293.14h-140.75c-2.67,0-4.84-2.17-4.84-4.84s2.17-4.84,4.84-4.84h139.47c10.62-6.36,17.19-19.74,17.21-35.26,0-.44.06-.88.18-1.3l41.09-145.95c.73-2.57,3.4-4.07,5.97-3.35,2.57.72,4.07,3.4,3.35,5.97l-40.91,145.32c-.23,19.28-9.12,35.96-23.3,43.66-.71.38-1.5.59-2.31.59Z"/>
            </g>
          </g>
          <path class="cls-7" d="M163.61,401.21h0c-5.73,0-11.76-6.77-13.38-15.05l-18.27-92.83c-1.63-8.28,1.73-15.05,7.46-15.05h0c5.73,0,11.76,6.77,13.38,15.05l18.27,92.83c1.63,8.28-1.73,15.05-7.46,15.05Z"/>
          <path class="cls-7" d="M134.66,401.21h0c-5.73,0-12.41-6.77-14.84-15.05l-27.26-92.83c-2.43-8.28.27-15.05,6-15.05h0c5.73,0,12.41,6.77,14.84,15.05l27.26,92.83c2.43,8.28-.27,15.05-6,15.05Z"/>
          <path class="cls-15" d="M163.78,143.44c1.41,11.15,1.79,22.02,1.4,33.24-.25,5.59-.75,11.22-1.77,16.95-.53,2.86-1.18,5.75-2.09,8.69-.9,2.98-2.12,5.88-3.47,8.55-2.72,5.38-6.01,10.24-9.74,14.69-3.71,4.47-7.88,8.53-12.48,12.11-4.6,3.56-9.61,6.72-15.14,8.98-5.52,2.2-11.61,3.66-17.81,3.21-2.38-.17-4.17-2.24-4-4.62.15-2.14,1.84-3.8,3.91-3.99h.11c4.58-.43,9.09-1.95,13.29-4.28,4.21-2.3,8.18-5.21,11.78-8.59,7.14-6.77,13.31-14.98,17.2-23.64.96-2.17,1.71-4.29,2.28-6.48.58-2.23,1.02-4.61,1.37-7.04.67-4.89,1.04-9.99,1.21-15.14.21-5.15.22-10.36.07-15.58-.06-5.19-.31-10.53-.56-15.59v-.2c-.2-4.01,2.89-7.41,6.89-7.6,3.81-.18,7.07,2.63,7.55,6.34Z"/>
          <path class="cls-13" d="M161.34,126.53c4.82-1.24,7.87,14.24,9.9,22.5,1.44,5.84,2.21,18.67,2.54,25.7.12,2.57-2.03,4.66-4.6,4.46l-20.26-1.58c-2.15-.17-3.82-1.9-3.94-4.05-.58-11.01-.71-42.65,16.36-47.04Z"/>
          <path class="cls-16" d="M114.38,375.53c2.95,6.06,7.89,19.63,7.89,19.63l8.46-2.07s-3.99-16.44-5.59-21.22l-10.77,3.67Z"/>
          <path class="cls-16" d="M148.1,382.52c2.27,6.06,5.87,19.63,5.87,19.63l7.8-2.07s-2.54-16.44-3.67-21.22l-10,3.67Z"/>
          <path class="cls-13" d="M223.31,138.74c-2.41-11.69-12.71-20.06-24.59-20.06-.16,0-.32,0-.48,0l-22.24.42c-1.12.02-2.21.3-3.2.81l-12.4,6.42h0c-8.88,4.6-13.57,14.68-11.41,24.51,10.72,48.8,9.33,88.78,9.31,89.18-.08,2.12.77,4.16,2.32,5.6,1.35,1.25,3.12,1.94,4.94,1.94.27,0,.54-.02.82-.05l56.5-6.4c3.48-.39,6.18-3.22,6.43-6.71,3.01-43.39-2.46-78.57-5.99-95.67Z"/>
          <path class="cls-2" d="M176.82,140.78c-7.6,0-13.78-6.18-13.78-13.78s6.18-13.78,13.78-13.78,13.78,6.18,13.78,13.78-6.18,13.78-13.78,13.78ZM176.82,113.82c-7.27,0-13.18,5.91-13.18,13.18s5.91,13.18,13.18,13.18,13.18-5.91,13.18-13.18-5.91-13.18-13.18-13.18Z"/>
          <path class="cls-2" d="M177.31,154.97c-1.11,0-2.15-.58-2.95-1.63-.79-1.05-1.24-2.44-1.27-3.94-.06-3.12,1.76-5.69,4.05-5.73.02,0,.05,0,.07,0,1.11,0,2.15.58,2.95,1.63.79,1.05,1.24,2.44,1.27,3.94h0c.03,1.49-.36,2.9-1.11,3.98-.77,1.11-1.81,1.73-2.94,1.75-.02,0-.04,0-.07,0ZM177.21,144.27s-.04,0-.05,0c-1.96.04-3.52,2.34-3.46,5.12.03,1.37.43,2.64,1.15,3.58.68.9,1.55,1.39,2.47,1.39.02,0,.04,0,.05,0,.93-.02,1.81-.55,2.46-1.49.67-.97,1.03-2.26,1-3.63h0c-.03-1.37-.43-2.64-1.15-3.58-.68-.9-1.55-1.39-2.47-1.39Z"/>
          <path class="cls-2" d="M179.34,168.88c-2.27,0-4.16-2.48-4.22-5.57-.03-1.49.36-2.91,1.11-3.98.77-1.11,1.81-1.73,2.94-1.75.02,0,.04,0,.07,0,1.11,0,2.15.58,2.95,1.63.79,1.05,1.24,2.44,1.27,3.93h0c.03,1.49-.36,2.9-1.11,3.98-.77,1.11-1.81,1.73-2.94,1.75-.02,0-.04,0-.06,0ZM179.24,158.18s-.04,0-.05,0c-.93.02-1.81.55-2.46,1.49-.67.97-1.03,2.26-1,3.63.06,2.76,1.67,4.97,3.61,4.97.02,0,.04,0,.05,0,.93-.02,1.81-.55,2.46-1.49.67-.97,1.03-2.26,1-3.63h0c-.03-1.37-.43-2.64-1.15-3.58-.68-.9-1.55-1.39-2.47-1.39Z"/>
          <path class="cls-22" d="M165.69,245.17h-6.45c-4.29.03-8.57.15-12.85.36-8.57.43-17.15,1.14-25.79,2.35-8.64,1.2-17.34,2.83-26.13,5.29-8.78,2.46-17.7,5.73-26.56,10.83h0s-1.66.92-1.66.92c-.8.46-1.58.99-2.31,1.61-6.33,5.35-7.12,14.83-1.77,21.16.42.49,1.1,1.46,1.68,2.27l1.81,2.59c1.2,1.78,2.41,3.57,3.59,5.41,2.38,3.65,4.69,7.42,6.97,11.21,4.55,7.6,8.88,15.42,13.08,23.34,4.18,7.93,8.19,15.98,12.06,24.13,3.88,8.15,7.55,16.41,11.16,24.72l15.07-5.03c-2.25-8.97-4.58-17.94-7.15-26.87-2.56-8.93-5.29-17.83-8.25-26.7-2.97-8.86-6.12-17.7-9.58-26.49-1.2-3.02-2.43-6.04-3.7-9.06,1.53-.5,3.08-.98,4.67-1.42,6.87-1.93,14.19-3.33,21.65-4.36,7.46-1.05,15.1-1.69,22.77-2.07,3.84-.19,7.69-.3,11.53-.33h5.74s.04,0,.06,0c3.02.04,5.53-2.31,5.68-5.32l1.4-28.39c-2.51-.11-4.51-.14-6.73-.18Z"/>
          <path class="cls-21" d="M233.1,251l-1.44-17.94c-.16-1.96-1.1-3.77-2.62-5.03-1.52-1.25-3.47-1.83-5.43-1.61l-60.3,6.83c-3.76.43-6.56,3.67-6.44,7.45l.25,7.62c-5.44,1.25-10.89,2.61-16.36,4.21-8.53,2.51-17.1,5.34-25.85,9.27h0s-1.36.58-1.36.58c-.54.23-1.07.5-1.59.8-7.26,4.21-9.73,13.52-5.52,20.78.38.66.92,1.74,1.4,2.68l1.46,2.96,2.87,6.11c1.89,4.11,3.72,8.3,5.52,12.51,3.58,8.43,6.98,17.01,10.25,25.66,3.28,8.65,6.38,17.39,9.39,26.18,3.01,8.79,5.86,17.66,8.65,26.56l15.72-3.53c-1.38-9.36-2.82-18.73-4.45-28.09-1.63-9.35-3.36-18.71-5.29-28.05-1.94-9.34-4.01-18.68-6.34-28.02-.96-3.82-1.96-7.65-3.01-11.48,2.48-.82,4.99-1.61,7.54-2.36,7.44-2.18,15.21-3.96,23-5.62,7.81-1.66,15.76-3.03,23.72-4.3,2.33-.36,4.69-.71,7.06-1.06l9.38-.5c2.42-.13,4.75-.68,6.92-1.58.14-.02.29-.03.43-.05v-.13c2.76-1.22,5.26-3.02,7.32-5.37,3.76-4.3,5.58-9.8,5.12-15.49Z"/>
          <path class="cls-13" d="M156.74,229.32c-.03,2.64-.1,7.54-.19,10.42-.01.36.28.63.64.61,6.22-.32,54.87-2.89,74.14-6.79.28-.06.47-.29.48-.57.02-1.33.03-5.29-.45-10.39-.18-1.9-1.91-3.27-3.8-3.01-10.57,1.46-43.58,5.88-69.01,7.8-1.02.08-1.8.92-1.81,1.94Z"/>
          <path class="cls-16" d="M176.14,136.04c-2.32,0-4.65-.83-6.5-2.51-12.96-11.76-14.31-30.25-14.43-32.32-.29-5.34,3.8-9.9,9.14-10.19,5.34-.28,9.88,3.78,10.19,9.1.22,3.47,2.12,13.64,8.11,19.08,3.96,3.59,4.25,9.72.66,13.68-1.91,2.1-4.54,3.17-7.17,3.17Z"/>
          <path class="cls-23" d="M171.33,111.2s-24.89,5.83-8.22,18.13c14.27,10.53,18.61-12.39,8.22-18.13Z"/>
          <path class="cls-16" d="M170.89,90.24c.07,1.7.23,3.76.38,5.65l.54,5.72c.21,1.87.43,3.73.68,5.47.25,1.73.53,3.41.79,4.74l.25,1.3c1.82,9.35-4.3,18.41-13.65,20.22-8.24,1.6-16.24-2.96-19.28-10.46-1.06-2.61-1.87-4.95-2.63-7.25-.75-2.29-1.41-4.5-2.04-6.7-.63-2.2-1.21-4.36-1.77-6.54-.56-2.21-1.08-4.25-1.61-6.66l-.11-.48c-2.31-10.49,4.32-20.88,14.81-23.19,10.49-2.31,20.88,4.32,23.19,14.81.24,1.09.39,2.3.44,3.38Z"/>
          <path class="cls-21" d="M153.09,106.08c.22.79,1.04,1.25,1.82,1.03.79-.22,1.25-1.04,1.03-1.82-.22-.79-1.04-1.25-1.82-1.03-.79.22-1.25,1.04-1.03,1.82Z"/>
          <path class="cls-21" d="M137.52,110.35c.22.79,1.04,1.25,1.82,1.03.79-.22,1.25-1.04,1.03-1.82-.22-.79-1.04-1.25-1.82-1.03-.79.22-1.25,1.04-1.03,1.82Z"/>
          <path class="cls-21" d="M149.86,100.86l-.49-.86c.23-.13,5.68-3.18,9.81-.47l-.54.82c-3.63-2.39-8.72.47-8.78.5Z"/>
          <path class="cls-21" d="M157.23,121.36l-.57-.8c3.42-2.41,5.45-6.36,5.47-6.4l.88.45c-.09.17-2.17,4.21-5.78,6.76Z"/>
          <path class="cls-21" d="M132.73,104.95l-.95-.26s1.36-4.74,6.63-4.15l-.11.98c-4.47-.5-5.52,3.27-5.57,3.43Z"/>
          <path class="cls-23" d="M149.62,118.64h-4.26l.11-.58c.72-3.82.23-7.69-1.44-11.52l.9-.39c1.67,3.82,2.21,7.69,1.6,11.51h3.08v.99Z"/>
          <path class="cls-21" d="M177.59,90.49c-.15-8.25-.34-11.94-4.67-12.08l3.36-1.92s-1.64-.74-3.48.33c1.43-2.96-.26-5.13-.26-5.13l-1.62,5.58c-2.73-6.11-10.97-11.27-23.76-5.25-11.66,5.49-19.31,5.31-19.31,5.31,0,0,1.44,1.81,4.33,3.22-4.89.44-9.57.09-9.57.09,1.2,2.19,3.45,3.79,6.13,4.74-3.75.35-6.76.31-6.76.31,1.7,2.82,5.08,4.54,8.87,5.16-2.85,1.42-4.9,2.26-4.9,2.26,5.8,5.23,20.83,1.1,29.15-6.51,4.74,9.22,13.03,19.68,16.71,19.36,5.95-.53,6.02-2.31,5.78-15.47Z"/>
          <path class="cls-16" d="M164.11,102.95c2-6.03,5.28-9.42,9.04-4.71,5.46,6.84-.52,17.96-4.49,14.06-3.97-3.9-4.55-9.35-4.55-9.35Z"/>
          <path class="cls-1" d="M157.36,383.29c-9.43-50.95-20.62-87.86-24.99-101.36-1-3.09.58-6.47,3.59-7.7,34.13-13.95,82.5-19.35,82.99-19.4l.07.6c-.48.05-48.78,5.44-82.83,19.36-2.72,1.11-4.15,4.17-3.24,6.96,4.38,13.51,15.57,50.45,25.01,101.44l-.6.11Z"/>
          <path class="cls-13" d="M160.51,393.7c-1.93,2.16-5.42,4-7.36,4.77-.52.21-.89.62-1.03,1.17-.95,3.69-5.4,16.87-10.42,20.46-5.6,4.01,8.54,3.99,13.09-2.97,4.55-6.95,7.93-11.08,11.15-13.61,2.58-2.03,1.24-6.35-2.87-10.01-.75-.67-1.88-.57-2.55.18Z"/>
          <path class="cls-13" d="M129.76,389.7c-2.37,1.67-6.18,2.67-8.25,2.98-.55.08-1.01.41-1.27.9-1.76,3.38-9.08,15.21-14.79,17.57-6.36,2.64,7.41,5.82,13.42.08,6.01-5.74,10.23-8.99,13.94-10.73,2.97-1.39,2.64-5.91-.53-10.4-.58-.82-1.7-.98-2.53-.4Z"/>
          <path class="cls-2" d="M147.71,404.05c-.58,0-1.16-.14-1.7-.49-.41-.26-.62-.69-.57-1.18.09-.92,1.03-1.94,2.25-2.42,1.66-.66,3.48-.26,5.01,1.08.06.05.1.13.1.22,0,.08-.03.16-.09.22-.13.13-2.59,2.56-5,2.56ZM149.31,400.26c-.58,0-1.07.13-1.41.27-1.14.45-1.81,1.32-1.87,1.91-.03.27.07.47.29.61,2.03,1.3,4.87-1.01,5.71-1.77-1-.79-1.95-1.03-2.73-1.03Z"/>
          <path class="cls-13" d="M152.49,401.58h-.02c-.15,0-3.68-.21-5.21-1.96-.52-.59-.75-1.3-.69-2.08.08-.94.62-1.53,1.47-1.58.04,0,.08,0,.12,0,1.5,0,3.86,1.77,4.62,5.26.02.09,0,.19-.06.26-.06.07-.14.11-.23.11ZM148.18,396.55s-.06,0-.09,0c-.68.04-.87.58-.9,1.03-.05.63.12,1.17.54,1.64,1.08,1.23,3.43,1.61,4.38,1.72-.77-2.87-2.73-4.38-3.92-4.38Z"/>
          <path class="cls-2" d="M115.55,397.07c-.82,0-1.61-.22-2.27-.82-.36-.33-.49-.78-.36-1.26.25-.89,1.35-1.73,2.62-2,1.74-.37,3.48.33,4.76,1.92.05.06.08.15.06.23-.01.08-.06.16-.13.2-.13.09-2.47,1.73-4.68,1.73ZM116.45,393.5c-.3,0-.57.04-.79.08-1.19.25-2,.99-2.16,1.57-.07.26-.01.48.18.65,1.78,1.63,4.97-.17,5.93-.77-1.11-1.23-2.28-1.53-3.16-1.53Z"/>
          <path class="cls-2" d="M120.06,395.4s-.05,0-.07,0c-.15-.03-3.59-.84-4.8-2.82-.41-.67-.52-1.4-.32-2.17.23-.91.87-1.4,1.71-1.31,1.48.16,3.62,2.33,3.77,5.99,0,.09-.04.18-.11.24-.05.05-.12.07-.19.07ZM116.4,389.69c-.59,0-.83.46-.94.87-.16.61-.08,1.17.25,1.7.85,1.4,3.1,2.17,4.02,2.44-.27-3.03-2.02-4.88-3.21-5-.04,0-.08,0-.13,0Z"/>
          <path class="cls-16" d="M230.25,164.69c-2.53-11.31-6.07-21.85-10.83-32.38-1.56-3.44-5.56-5.15-9.15-3.81-3.76,1.4-5.67,5.58-4.27,9.34l.09.25c1.76,4.72,3.6,9.82,5.1,14.81,1.58,5,3,10.04,4.09,15.07,1.05,5.02,1.93,10.03,2.15,14.83.26,4.75-.18,9.4-1.61,12.39-.22.54-1.03,1.93-1.67,3l-2.03,3.34c-1.38,2.2-2.81,4.35-4.3,6.44-2.94,4.21-6.2,8.09-9.7,11.63-6.94,6.94-15.4,11.92-25.05,13.41-3.21-.58-7.28-1.03-11.98-2.52-.77-.25-1.63-.24-2.51-.08-4.72.86-9.69,10.38-8.42,15,.79,2.87,4.76.8,9.18.16,9.56-1.4,21.15-1.44,21.3-3.75.02-.31,0-.57.02-.86,3.51-.56,6.99-1.48,10.31-2.78,5.65-2.31,10.79-5.6,15.4-9.36,4.63-3.75,8.63-8.08,12.32-12.54,1.82-2.25,3.55-4.56,5.2-6.89l2.42-3.52c.81-1.24,1.49-2.14,2.5-4.04,1.77-3.39,2.66-6.81,3.19-10.07.5-3.27.68-6.43.57-9.48-.19-6.12-1.04-11.93-2.3-17.57Z"/>
          <path class="cls-13" d="M204.42,119.32c-4.94-.55-1.95,16.36-1.48,24.86.48,8.5,3.2,24.42,3.2,24.42l24.83-4.01c1.73-.28,2.91-1.91,2.61-3.64-1.68-9.8-8.44-39.33-29.17-41.63Z"/>
          <path class="cls-2" d="M205.84,168.64c-.03-.16-2.73-16.03-3.21-24.45-.05-.86-.11-1.79-.17-2.79-.25-4.01-.57-9-.42-13.16l.61.02c-.15,4.13.16,9.1.42,13.1.06.99.12,1.93.17,2.79.47,8.38,3.17,24.22,3.2,24.38l-.6.1Z"/>
          <polygon class="cls-18" points="143.21 383.51 144.94 389.9 164.03 386.7 162.9 378.85 143.21 383.51"/>
          <polygon class="cls-21" points="108.9 376.92 110.88 383.23 129.83 379.32 128.4 371.51 108.9 376.92"/>
          <rect class="cls-2" x="187.13" y="76.78" width=".61" height="14.11"/>
          <path class="cls-2" d="M187.43,92.61c-.19,0-.39-.03-.58-.1-.43-.15-.78-.47-.98-.89-.2-.41-.22-.88-.06-1.31.15-.43.47-.78.88-.98.41-.2.88-.22,1.31-.06.43.15.78.47.98.88.2.41.22.88.07,1.31h0c-.16.43-.47.78-.88.98-.23.11-.48.17-.74.17ZM187.43,89.78c-.16,0-.33.04-.48.11-.27.13-.47.35-.57.63-.1.28-.09.58.04.85.13.27.35.47.63.57.29.1.59.09.85-.04.27-.13.47-.35.57-.63h0c.1-.28.09-.58-.04-.85-.13-.27-.35-.47-.63-.57-.12-.04-.25-.06-.38-.06Z"/>
          <path class="cls-2" d="M175.04,91.19c-4.85,0-12.42-1.74-19.53-4.28-11.09-3.96-21.81-10.14-20.57-13.63l3.23-9.05.57.2-3.23,9.05c-.86,2.42,7.05,8.16,20.2,12.86,13.15,4.7,22.91,5.27,23.78,2.84l3.23-9.05.57.2-3.23,9.05c-.45,1.25-2.31,1.8-5.02,1.8Z"/>
          <path class="cls-2" d="M196.51,78.01c-.07,0-.14,0-.21-.01l-33.97-3.52c-1.5-.16-2.96-.68-4.22-1.51l-28.52-18.8c-.85-.56-.98-1.51-.74-2.2.25-.69.92-1.34,1.96-1.24l33.97,3.51c1.5.16,2.96.68,4.22,1.51l28.51,18.8c.85.56.98,1.51.74,2.2-.23.64-.85,1.25-1.75,1.25ZM130.61,51.34c-.64,0-1.03.44-1.18.85-.16.43-.12,1.09.5,1.49l28.52,18.8c1.18.78,2.54,1.26,3.95,1.41l33.97,3.52c.74.09,1.18-.4,1.33-.84.15-.43.12-1.09-.5-1.49l-28.51-18.8c-1.18-.78-2.55-1.26-3.95-1.41l-33.97-3.51c-.05,0-.1,0-.15,0Z"/>
          <path class="cls-2" d="M189.22,73.85l-25.71-2.66c-1.5-.16-2.96-.68-4.22-1.51l-14.74-9.71.33-.51,14.74,9.71c1.18.78,2.55,1.26,3.95,1.41l25.71,2.66-.06.6Z"/>
          <path class="cls-21" d="M179.88,243.01s-.05,0-.08,0c-.67-.05-1.17-.62-1.13-1.29.18-2.75-.28-4.68-1.42-5.9-1.23-1.32-3.39-1.93-6.78-1.93-.67,0-1.21-.54-1.21-1.21s.54-1.21,1.21-1.21c4.11,0,6.83.86,8.55,2.7,1.62,1.73,2.29,4.25,2.06,7.71-.04.64-.57,1.13-1.21,1.13Z"/>
          <path class="cls-24" d="M181.97,232.6c.09,1.13-2.85,2.29-6.57,2.6s-6.81-.36-6.9-1.49l-.08-.95,13.47-1.11.08.95Z"/>
          <path class="cls-21" d="M181.9,231.65c.09,1.13-2.85,2.29-6.57,2.6s-6.81-.36-6.9-1.49c-.09-1.13,2.85-2.29,6.57-2.6,3.72-.31,6.81.36,6.9,1.49Z"/>
          <path class="cls-24" d="M180.36,231.78c.05.65-2.23,1.36-5.11,1.6-2.87.24-5.25-.1-5.3-.74s2.23-1.36,5.11-1.6c2.87-.24,5.25.1,5.3.74Z"/>
          <g>
            <path class="cls-11" d="M48.55,260.17c.33,2.27,2.46,3.86,4.73,3.53l140.53-20.51c2.27-.33,3.86-2.46,3.53-4.73l-148.79,21.71Z"/>
            <path class="cls-27" d="M148.47,245.59h0c.66,2.32,2.94,3.79,5.32,3.44l40.02-5.84c2.27-.33,3.86-2.46,3.53-4.74l-48.87,7.13Z"/>
            <path class="cls-11" d="M146.45,247.46l-93.77,13.68c-4.06.59-8.36-2.17-9.56-6.14l-18.9-62.37c-1.2-3.97,1.13-7.7,5.19-8.29l93.77-13.68c4.06-.59,8.36,2.17,9.56,6.14l18.9,62.37c1.2,3.97-1.13,7.7-5.19,8.29Z"/>
            <path class="cls-12" d="M144.31,247.77l-93.77,13.68c-4.06.59-8.36-2.17-9.56-6.14l-18.9-62.37c-1.2-3.97,1.13-7.7,5.19-8.29l93.77-13.68c4.06-.59,8.36,2.17,9.56,6.14l18.9,62.37c1.2,3.97-1.13,7.7-5.19,8.29Z"/>
            <path class="cls-2" d="M49.08,259.47c-2.64,0-5.22-1.85-6-4.41l-18.9-62.37c-.42-1.39-.26-2.79.46-3.93.71-1.12,1.88-1.85,3.29-2.06l93.77-13.68c2.88-.43,5.93,1.53,6.79,4.36l18.9,62.37c.43,1.39.26,2.79-.46,3.93-.71,1.12-1.88,1.85-3.29,2.06l-93.77,13.68c-.26.04-.53.06-.79.06ZM49.79,258.81l.04.3-.04-.3,93.77-13.68c1.23-.18,2.25-.81,2.86-1.78.63-.99.77-2.2.4-3.43l-18.9-62.37c-.77-2.55-3.51-4.32-6.13-3.93l-93.77,13.68c-1.23.18-2.25.81-2.86,1.78-.63.99-.77,2.21-.4,3.43l18.9,62.37c.77,2.55,3.51,4.31,6.13,3.93Z"/>
            <path class="cls-2" d="M85.49,231.99c-1.09,0-2.19-.11-3.29-.32-1.43-.28-2.64-1.23-3.24-2.55-.57-1.25-.5-2.63.18-3.79h0c1.38-2.38,1.66-5.27.79-8.15-.87-2.87-2.81-5.46-5.46-7.27-1.35-.93-2.05-2.45-1.88-4.07.17-1.6,1.16-2.92,2.65-3.53,1.12-.46,2.31-.78,3.56-.97,8.51-1.24,17.54,4.54,20.07,12.89,1.24,4.11.76,8.21-1.36,11.55-2.09,3.29-5.52,5.44-9.66,6.04-.78.11-1.57.17-2.37.17ZM80.18,225.93c-.48.82-.52,1.8-.12,2.69.44.96,1.32,1.66,2.37,1.86,1.77.34,3.54.39,5.25.14,3.78-.55,6.91-2.5,8.81-5.49,1.93-3.04,2.37-6.79,1.23-10.55-2.37-7.8-10.78-13.22-18.74-12.05-1.15.17-2.26.47-3.28.89-1.07.44-1.79,1.39-1.91,2.54-.13,1.17.39,2.27,1.36,2.94,2.87,1.97,4.98,4.79,5.93,7.92.97,3.2.65,6.44-.91,9.11h0Z"/>
          </g>
          <g>
            <path class="cls-28" d="M34.71,153.13c-10.22,0-18.53-8.31-18.53-18.53s8.31-18.53,18.53-18.53,18.53,8.31,18.53,18.53-8.31,18.53-18.53,18.53ZM34.71,116.68c-9.88,0-17.92,8.04-17.92,17.92s8.04,17.92,17.92,17.92,17.92-8.04,17.92-17.92-8.04-17.92-17.92-17.92Z"/>
            <path class="cls-2" d="M20.04,65.99c0,5.53-4.49,10.02-10.02,10.02S0,71.53,0,65.99s4.49-10.02,10.02-10.02,10.02,4.49,10.02,10.02Z"/>
            <path class="cls-2" d="M524.37,169.14c-5.69,0-10.32-4.63-10.32-10.32s4.63-10.32,10.32-10.32,10.32,4.63,10.32,10.32-4.63,10.32-10.32,10.32ZM524.37,149.1c-5.36,0-9.72,4.36-9.72,9.72s4.36,9.72,9.72,9.72,9.72-4.36,9.72-9.72-4.36-9.72-9.72-9.72Z"/>
            <path class="cls-21" d="M231.81,555.72c0,3.26-2.64,5.9-5.9,5.9s-5.9-2.64-5.9-5.9,2.64-5.9,5.9-5.9,5.9,2.64,5.9,5.9Z"/>
            <polygon class="cls-19" points="420.06 51.35 410.39 68.08 429.72 68.08 420.06 51.35"/>
            <path class="cls-19" d="M94.32,146.29l-.14-.51-5.14-19.18,19.68,5.27-.37.37-14.04,14.04ZM89.9,127.47l4.73,17.66,12.93-12.92-17.66-4.73Z"/>
            <rect class="cls-21" x="513.91" y="198.27" width="16.46" height="16.46" transform="translate(6.91 429.69) rotate(-45)"/>
            <polygon class="cls-28" points="519.76 53.14 519.33 52.71 545.52 26.52 545.95 26.95 519.76 53.14"/>
            <rect class="cls-19" x="16.19" y="249.33" width=".61" height="37.03" transform="translate(-184.57 90.11) rotate(-45)"/>
            <rect class="cls-21" x="363.84" y="547.22" width=".61" height="37.03" transform="translate(-293.38 423.19) rotate(-45)"/>
          </g>
        </g>
      </g>
    </g>
  </g>
</svg>